<svg xmlns="http://www.w3.org/2000/svg" version="1.1" xmlns:xlink="http://www.w3.org/1999/xlink" width="16" height="16" x="0" y="0" viewBox="0 0 512 512" style="enable-background:new 0 0 512 512" xml:space="preserve" class=""><g><path d="M440.543 482.076c-.059-2.385-.206-3.133-11.642-61.494a7.501 7.501 0 1 0-14.714 2.93c10.92 56.323 11.482 54.695 11.357 60.203-.203 8.471-4.2 13.28-15.836 13.28h-37.715a.036.036 0 0 1-.036-.036v-81.631c0-4.127-3.18-7.74-7.304-7.846a7.5 7.5 0 0 0-7.698 7.498v81.978c0 .02-.016.036-.036.036-87.904 0-84.286.04-84.197-.06 23.96-26.915 23.434-25.771 24.999-28.414 2.534-4.281 3.221-9.526 1.754-14.358-23.947-78.964-24.104-79.177-24.034-79.278 4.286-6.156 4.501-6.592 4.601-6.572 7.231 1.474 14.363-1.707 17.947-6.895 26.826-38.607 26.227-37.896 26.327-37.862 54.035 19.085 50.721 17.928 51.098 18.038 3.345 1.021 9.067 2.137 15.777 7.506v.001c13.278 11.287 12.156 22.097 16.161 40.075a7.5 7.5 0 1 0 14.713-2.927c-3.296-14.792-3.603-23.134-8.255-32.459a.037.037 0 0 0-.049-.017l-.056-.115c.14-.072-7.121-15.737-24.695-23.3-.101-.043-63.786-22.357-63.886-22.392-19.525-16.55-20.088-16.942-20.088-17.043 0-8.632-.082-9.527.018-9.584 28.079-16.12 46.061-44.405 49.308-75.236a.035.035 0 0 1 .036-.031c22.81 1.035 38.694-20.769 29.139-39.856l-.004-.01v-61.152c0-44.212-24.039-59.599-31.394-63.273a.044.044 0 0 1-.011-.008C324.89 9.265 280.251-4.781 237.467 1.438c-39.636 5.764-65.673 30.538-66.119 30.832-5.277 4.548-2.008 13.184 4.9 13.184 3.29 0 4.878-1.78 7.601-4.154C233.025.4 306.83 9.718 341.613 52.608c.842 1.037 1.867 1.802 3.119 2.27.972.39 23.798 9.996 23.798 50.181v47.292a.034.034 0 0 1-.048.032c-4.122-1.738-8.655-2.641-13.504-2.51a.034.034 0 0 1-.036-.035v-24.5c0-6.224-4.689-11.369-10.905-11.969-12.606-1.216-19.67-9.429-23.377-16.105-4.628-8.335-15.699-10.37-22.975-4.15-33.448 28.591-71.962 30.044-98.379 26.234-19.948-2.88-38.497 10.699-41.74 30.507-.039.24-6.066-.827-14.025 2.528a.034.034 0 0 1-.048-.032c.028-28.22-2.4-52.527 16.453-83.338 2.148-3.511 1.363-8.238-2.075-10.499a7.502 7.502 0 0 0-10.515 2.332c-12.497 20.295-18.636 44.111-18.757 61.752-.163 4.182-.106 46.306-.112 43.622-9.552 19.081 6.311 40.895 29.137 39.858a.035.035 0 0 1 .036.031c3.293 31.329 21.923 59.55 49.297 75.228.023.013.091 10.223.009 10.288-34.145 27.401-5.415 4.346-20.667 16.583l-54.088 19.046c-.681.338-23.134 4.197-33.972 26.487l-.05.101c-4.788 9.592-4.308 12.723-26.216 122.733a8.36 8.36 0 0 0-.071.415c-2.86 20.222 7.74 35.01 30.41 35.01h69.817c4.127 0 7.74-3.18 7.846-7.304a7.5 7.5 0 0 0-7.498-7.698h-17.376c-.155 0-.036-81.809-.036-81.667 0-4.126-3.179-7.74-7.303-7.846a7.5 7.5 0 0 0-7.699 7.498c-.017 85.451.065 82.014-.036 82.014H102.31c-11.495 0-17.314-4.826-15.583-17.71v-.003l21.795-109.462c.844-6.463 5.154-14.951 12.183-20.617v-.001c7.343-5.931 13.455-6.72 16.322-7.743l50.002-17.642c.1-.035 25.588 36.881 26.349 37.881 7.418 9.696 18.122 6.426 18.208 6.545 4.21 5.841 4.875 6.645 4.845 6.745l-24.016 79.176c-1.803 5.948-.348 12.52 3.8 17.15 23.662 26.47 23.097 25.681 22.927 25.681h-31.31c-4.127 0-7.74 3.18-7.846 7.304a7.5 7.5 0 0 0 7.498 7.698h202.229c20.402 0 31.265-11.917 30.83-29.923zm-85.602-317.194c8.651-.457 16.394 5.37 16.394 13.1 0 7.808-7.824 13.554-16.394 13.102v-26.202zm-197.859 26.202c-8.642.458-16.394-5.361-16.394-13.101 0-7.806 7.826-13.554 16.394-13.101v26.202zm126.614 262.743c.762 3.465 2.522 5.56.806 7.478l-4.868 5.434-42.473-42.473 3.95-13.024 42.585 42.585zm-26.978-159.5c.655-.059 11.573.204 24.663-3.279l.314-.087v-.001l.119-.033v.001c.606-.192 3.768-.973 8.217-2.609v2.934l-34.375 33.463-33.675-32.663v-3.736c11.847 4.338 25.074 6.255 34.741 6.01h-.004zm10.974 65.437-4.41 6.335H248.53l-4.775-6.625 11.888-13.106 12.049 13.396zm6.767 63.607-28.41-28.409 4.205-13.862h11.383l12.822 42.271zm36.855-107.438-25.518 36.745a2.767 2.767 0 0 1-2.126 1.008c-1.731-.046-.692.772-17.602-18.166l31.815-30.972 13.431 11.385zM172.203 199.707c-.16-3.182-.12-.1-.12-43.893 0-13.379 11.897-23.529 25.078-21.619 29.488 4.255 72.553 2.563 110.27-29.677l.11.028c7.244 13.048 18.678 21.285 32.397 23.421.056 72.22.543 74.379-2.025 85.865-5.957 24.241-19.709 42.697-40.353 54.513-23.168 13.251-46.07 10.975-42.559 10.977-14.755-.149-26.003-4.427-25.081-4.134-32.304-10.605-55.957-40.113-57.717-75.481zm57.519 152.926c-1.209 1.506-3.306 1.31-4.355.044l-25.232-36.333L214 305.227l31.235 30.283c-11.969 13.201-15.292 16.847-15.513 17.123zm26.223 140.548-28.557-31.877c-1.919-2.142.038-3.336 4.835-20.76l37.385 37.385-13.663 15.252z" fill="#000000" opacity="1" data-original="#000000" class=""></path></g></svg>