<svg xmlns="http://www.w3.org/2000/svg" version="1.1" xmlns:xlink="http://www.w3.org/1999/xlink" width="16" height="16" x="0" y="0" viewBox="0 0 64 64" style="enable-background:new 0 0 512 512" xml:space="preserve" class=""><g><path d="m39.5 30.6-6.8 6.8-4.3-4.3c-1.8-1.8-4.7 1-2.8 2.8l5.7 5.7c.8.8 2.1.8 2.8 0l8.2-8.2c1.9-1.8-.9-4.6-2.8-2.8z" fill="#0f2027" opacity="1" data-original="#000000" class=""></path><path d="M51.6 8.8v-.6c0-1-.9-2-2-2s-2 .9-2 2v.6H22.9v-.7c0-1-.9-2-2-2s-2 .9-2 2v.8c-4.6 0-8.4 3.8-8.4 8.4V25c-.1.3-.2.5-.2.8-.6 4.3-1.6 8.6-3 12.7-.7 1.9-1.5 3.9-2.4 5.7-.8 1.7-.7 3.6.3 5.1s2.6 2.4 4.4 2.4h1.1c.9 3.7 4.2 6.4 8.2 6.4h32.4c4.6 0 8.4-3.8 8.4-8.4V17.2c0-4.6-3.6-8.2-8.1-8.4zm-32.8 4v.4c0 1 .9 2 2 2s2-.9 2-2v-.4h24.8v.6c0 1 .9 2 2 2s2-.9 2-2v-.6c2.3.2 4.1 2.1 4.1 4.4V22H14.4v-4.8c0-2.5 2-4.4 4.4-4.4zM8.5 47.1c-.2-.4-.3-.8-.1-1.2.9-2 1.8-4 2.5-6.1 1.5-4.4 2.6-8.9 3.2-13.5 0-.1.1-.2.2-.2h40.9s.1 0 .2.1c0 0 .1.1.1.2-.5 4.5-1.5 8.9-2.9 13.1-.7 2.1-1.6 4.2-2.6 6.3-.6 1.2-1.9 2-3.3 2H9.6c-.5-.2-.9-.4-1.1-.7zM51.3 54H18.8c-1.7 0-3.1-1-3.9-2.4h31.7c2.9 0 5.6-1.7 6.9-4.3.8-1.6 1.5-3.3 2.1-5v7.3c.1 2.4-1.9 4.4-4.3 4.4z" fill="#0f2027" opacity="1" data-original="#000000" class=""></path></g></svg>