<svg xmlns="http://www.w3.org/2000/svg" version="1.1" xmlns:xlink="http://www.w3.org/1999/xlink" width="48" height="48" x="0" y="0" viewBox="0 0 511.384 511.384" style="enable-background:new 0 0 512 512" xml:space="preserve" class=""><g><path d="M503.812 183.224v272.42c0 26.64-21.59 48.24-48.23 48.24h-338.36c-26.64 0-48.24-21.6-48.24-48.24v-17.52l434.83-254.9z" style="" fill="#dbe0e3" data-original="#d7d7f9" class="" opacity="1"></path><path d="m150.281 390.466-81.299 47.658v17.52c0 26.64 21.6 48.24 48.24 48.24h118.452c-36.638-30.417-66.069-69.201-85.393-113.418z" style="" fill="#bac2c7" data-original="#b6c4f9" class="" opacity="1"></path><path d="M492.642 276.554c-12.27 50.76-32.53 91.39-49.61 119.21-16.14 26.28-44.71 42.36-75.55 42.36H40.102c-25.06 0-40.73-27.23-28.02-48.83 16.18-27.5 34.37-65.79 45.73-112.74l198.24-34.298 236.59 34.298z" style="" fill="#eff3f5" data-original="#f0f0f9" class="" opacity="1"></path><path d="M394.1 178.532 280.812 65.244 167.524 178.532l-28.284-28.284L266.67 22.817c7.811-7.811 20.475-7.811 28.285 0l127.431 127.431-28.286 28.284z" style="" fill="#3a5057" data-original="#363c58" class="" opacity="1"></path><path d="M124.723 267.739c0-.925.027-1.844.035-2.768l-66.945 11.582c-11.36 46.95-29.55 85.24-45.73 112.74-12.71 21.6 2.96 48.83 28.02 48.83h136.264c-32.614-48.738-51.644-107.336-51.644-170.384z" style="" fill="#dbe0e3" data-original="#d7d7f9" class="" opacity="1"></path><path d="M503.812 183.224c0 33.92-4.36 65.18-11.17 93.33H57.812c6.82-28.15 11.17-59.41 11.17-93.33 0-26.64 21.6-48.24 48.24-48.24h338.36c26.64 0 48.23 21.6 48.23 48.24z" style="" fill="#ff7745" data-original="#f97a6f" class="" opacity="1"></path><path d="M294.955 22.817c-7.811-7.811-20.475-7.811-28.285 0l-43.853 43.854a63.847 63.847 0 0 0 26.959 29.609l31.037-31.037L311.85 96.28c11.874-6.688 21.385-17.083 26.96-29.609l-43.855-43.854z" style="" fill="#223339" data-original="#2a2d47" class="" opacity="1"></path><circle cx="280.812" cy="40.959" r="33.459" style="" fill="#f7c37d" data-original="#fbe381" class="" opacity="1"></circle><path d="M179.979 369.989c-.049 15.506-15.873 28.027-35.344 27.966-19.472-.061-35.217-12.68-35.169-28.187.048-15.506 15.873-28.027 35.345-27.966 19.471.061 35.217 12.681 35.168 28.187zM300.568 370.367c-.049 15.506 15.697 28.126 35.169 28.187 19.472.061 35.296-12.46 35.344-27.966.049-15.506-15.697-28.126-35.169-28.187-19.471-.061-35.295 12.46-35.344 27.966z" style="" fill="#fdccd2" data-original="#fba0ab" class="" opacity="1"></path><path d="M268.767 348.695c.055-17.567-12.666-19.258-28.365-19.307-15.699-.049-28.431 1.561-28.486 19.129-.055 17.567 12.627 31.848 28.326 31.897 15.699.049 28.47-14.152 28.525-31.719z" style="" fill="#3a5057" data-original="#363c58" class="" opacity="1"></path><path d="M124.723 267.739c0-47.556 10.823-92.582 30.137-132.755h-37.637c-26.64 0-48.24 21.6-48.24 48.24 0 33.92-4.35 65.18-11.17 93.33h67.045a307.297 307.297 0 0 1-.135-8.815z" style="" fill="#e64f17" data-original="#f85d5e" class="" opacity="1"></path><path d="M268.387 15.148c0-1.826.125-3.623.343-5.39-12.505 4.847-21.377 16.984-21.377 31.201 0 18.479 14.98 33.459 33.459 33.459 11.958 0 22.445-6.278 28.361-15.713-22.772-1.481-40.786-20.41-40.786-43.557z" style="" fill="#f5ac68" data-original="#f9d154" class="" opacity="1"></path><path d="M386.144 276.554H57.812c-11.36 46.95-29.55 85.24-45.73 112.74-12.71 21.6 2.96 48.83 28.02 48.83h327.38c30.84 0 59.41-16.08 75.55-42.36 17.08-27.82 37.34-68.45 49.61-119.21h-76.498" style="stroke-width:15;stroke-linecap:round;stroke-linejoin:round;stroke-miterlimit:10;" fill="none" stroke="#223339" stroke-width="15" stroke-linecap="round" stroke-linejoin="round" stroke-miterlimit="10" data-original="#000000" class="" opacity="1"></path><path d="M268.767 348.695c.055-17.567-12.666-19.258-28.365-19.307-15.699-.049-28.431 1.561-28.486 19.129-.055 17.567 12.627 31.848 28.326 31.897 15.699.049 28.47-14.152 28.525-31.719zM182.147 339.443c.029-9.268-7.461-16.805-16.729-16.834-9.268-.029-16.805 7.461-16.834 16.729M298.592 339.808c.029-9.268 7.566-16.758 16.834-16.729 9.268.029 16.758 7.566 16.729 16.834M198.881 239.249s-31.44.395-32.929-.101c-1.489-.496 2.388-3.119 23.001-32.571 3.85-5.5 5.969-10.141 6.87-14.029l.319-2.5c0-9.132-7.403-16.535-16.535-16.535-8.036 0-14.732 5.732-16.225 13.33M327.813 239.249s-31.44.395-32.929-.101c-1.489-.496 2.388-3.119 23.001-32.571 3.85-5.5 5.969-10.141 6.87-14.029l.319-2.5c0-9.132-7.403-16.535-16.535-16.535-8.036 0-14.732 5.732-16.225 13.33M358.305 186.588c1.492-7.598 8.189-13.33 16.225-13.33 9.132 0 16.535 7.403 16.535 16.535 0 9.132-7.403 16.535-16.535 16.535M374.53 206.328c9.132 0 16.535 7.403 16.535 16.535 0 9.132-7.403 16.535-16.535 16.535-8.349 0-15.253-6.188-16.375-14.229a16.714 16.714 0 0 1-.16-2.306M264.285 220.711c0 10.32-8.366 18.687-18.687 18.687-10.32 0-18.687-8.366-18.687-18.687v-29.884c0-10.32 8.366-18.687 18.687-18.687 10.32 0 18.687 8.366 18.687 18.687v29.884z" style="stroke-width:15;stroke-linecap:round;stroke-linejoin:round;stroke-miterlimit:10;" fill="none" stroke="#223339" stroke-width="15" stroke-linecap="round" stroke-linejoin="round" stroke-miterlimit="10" data-original="#000000" class="" opacity="1"></path><path d="M215.917 503.884h239.665c26.64 0 48.23-21.6 48.23-48.24v-272.42c0 33.92-4.36 65.18-11.17 93.33-12.27 50.76-32.53 91.39-49.61 119.21-16.14 26.28-44.71 42.36-75.55 42.36h-298.5v17.52c0 26.64 21.6 48.24 48.24 48.24h68.695" style="stroke-width:15;stroke-linecap:round;stroke-linejoin:round;stroke-miterlimit:10;" fill="none" stroke="#223339" stroke-width="15" stroke-linecap="round" stroke-linejoin="round" stroke-miterlimit="10" data-original="#000000" class="" opacity="1"></path><path d="M416.144 276.554h76.498c6.81-28.15 11.17-59.41 11.17-93.33 0-26.64-21.59-48.24-48.23-48.24h-338.36c-26.64 0-48.24 21.6-48.24 48.24 0 33.92-4.35 65.18-11.17 93.33h328.332M314.243 42.105c-.511 15.153-11.089 27.749-25.264 31.305l61.573 61.574h56.569l-92.878-92.879z" style="stroke-width:15;stroke-linecap:round;stroke-linejoin:round;stroke-miterlimit:10;" fill="none" stroke="#223339" stroke-width="15" stroke-linecap="round" stroke-linejoin="round" stroke-miterlimit="10" data-original="#000000" class="" opacity="1"></path><path d="m247.382 42.105-92.879 92.879h56.568l61.574-61.574c-14.174-3.556-24.752-16.152-25.263-31.305z" style="stroke-width:15;stroke-linecap:round;stroke-linejoin:round;stroke-miterlimit:10;" fill="none" stroke="#223339" stroke-width="15" stroke-linecap="round" stroke-linejoin="round" stroke-miterlimit="10" data-original="#000000" class="" opacity="1"></path><circle cx="280.812" cy="40.959" r="33.459" style="stroke-width:15;stroke-linecap:round;stroke-linejoin:round;stroke-miterlimit:10;" fill="none" stroke="#223339" stroke-width="15" stroke-linecap="round" stroke-linejoin="round" stroke-miterlimit="10" data-original="#000000" class="" opacity="1"></circle></g></svg>