<svg xmlns="http://www.w3.org/2000/svg" version="1.1" xmlns:xlink="http://www.w3.org/1999/xlink" width="16" height="16" x="0" y="0" viewBox="0 0 512 512" style="enable-background:new 0 0 512 512" xml:space="preserve" class=""><g><path d="M256 0C114.841 0 0 114.841 0 256s114.841 256 256 256 256-114.841 256-256S397.159 0 256 0zm0 448c-105.869 0-192-86.131-192-192S150.131 64 256 64s192 86.131 192 192-86.131 192-192 192zm112.006-233.029L250.467 340.734c-6.295 6.736-14.829 10.15-23.387 10.15a31.89 31.89 0 0 1-21.483-8.29l-59.71-54.122c-13.094-11.869-14.087-32.106-2.219-45.201 11.87-13.094 32.107-14.089 45.2-2.219l36.36 32.957 96.02-102.739c12.065-12.91 32.317-13.597 45.229-1.529s13.596 32.318 1.529 45.23z" fill="#000000" opacity="1" data-original="#000000" class=""></path></g></svg>