<svg xmlns="http://www.w3.org/2000/svg" version="1.1" xmlns:xlink="http://www.w3.org/1999/xlink" width="16" height="16" x="0" y="0" viewBox="0 0 512 512" style="enable-background:new 0 0 512 512" xml:space="preserve" class=""><g><path d="M332.2 332.9c8.2 0 16.3-4 21.2-11.3 7.8-11.7 4.6-27.4-7-35.2l-64.9-43.3V129.7c0-14-11.4-25.4-25.4-25.4s-25.4 11.4-25.4 25.4v127c0 8.5 4.2 16.4 11.3 21.1l76.2 50.8c4.2 2.9 9.1 4.3 14 4.3z" fill="#ffffff" opacity="1" data-original="#ffffff" class=""></path><path d="M225.5 4.5C130.6 15.6 48.3 81.4 16.7 171.6-17.2 268 9.8 368 74.9 434.5H27.4c-14 0-25.4 11.4-25.4 25.4s11.4 25.4 25.4 25.4h127c14 0 25.4-11.4 25.4-25.4v-127c0-14-11.4-25.4-25.4-25.4S129 318.9 129 332.9V415c-62.6-50.4-92.5-135-67.3-217.8 24.6-80.9 99.7-139.3 184.1-143.4 116.6-5.7 213.3 87.6 213.3 203 0 104.6-79.5 191-181.2 202-12.6 1.4-22 12.3-22 25 0 15.2 13.4 27.1 28.5 25.4C411.2 494.9 510 387.1 510 256.7 510 106.6 379.2-13.5 225.5 4.5z" fill="#ffffff" opacity="1" data-original="#ffffff" class=""></path></g></svg>