<svg xmlns="http://www.w3.org/2000/svg" version="1.1" xmlns:xlink="http://www.w3.org/1999/xlink" width="48" height="48" x="0" y="0" viewBox="0 0 512 512" style="enable-background:new 0 0 512 512" xml:space="preserve" class=""><g><path fill="#f6bf73" d="M387.196 433.966H22.5c-8.284 0-15-6.716-15-15V25.97c0-8.284 6.716-15 15-15h142.639l65.525 10 53.987-10h102.546c8.284 0 15 6.716 15 15v392.997c-.001 8.284-6.717 14.999-15.001 14.999z" opacity="1" data-original="#e69e75" class=""></path><path fill="#eea25a" d="M442.2 25.97v393c0 8.28-6.72 15-15 15h-50c8.28 0 15-6.72 15-15v-393c0-8.28-6.72-15-15-15h50c8.28 0 15 6.72 15 15z" opacity="1" data-original="#df8f68" class=""></path><path fill="#ff7745" d="m264.208 119.379-21.648-10.526-14.065-9.122a6.702 6.702 0 0 0-7.294 0l-45.714 29.649c-4.459 2.892-10.349-.308-10.349-5.623V10.97h77.421l31.997 10v92.787c.001 5.314-5.889 8.514-10.348 5.622z" opacity="1" data-original="#f8eff4" class=""></path><path fill="#fc632b" d="M284.56 10.97v112.79c0 5.31-5.89 8.51-10.35 5.62l-31.65-20.53V10.97z" opacity="1" data-original="#e6dfe3" class=""></path><path fill="#fca514" d="M132.487 385.661H65.404a5 5 0 0 1-5-5v-41.617a5 5 0 0 1 5-5h67.083a5 5 0 0 1 5 5v41.617a5 5 0 0 1-5 5z" opacity="1" data-original="#ffe06c" class=""></path><path fill="#ffebc5" d="M170.49 339.04v41.62c0 2.76-2.24 5-5 5h-40c2.76 0 5-2.24 5-5v-41.62c0-2.76-2.24-5-5-5h40c2.76 0 5 2.24 5 5z" opacity="1" data-original="#ffc344" class=""></path><path fill="#fca514" d="M494.5 362.353c0 76.589-52.088 136.677-128.677 136.677-5.641 0-11.204 1.663-16.668 1.008-68.73-8.233-122.008-66.737-122.008-137.685 0-70.98 53.326-129.504 122.101-137.696 5.435-.647.967 2.02 6.576 2.02 76.588 0 138.676 59.087 138.676 135.676z" opacity="1" data-original="#ffe06c" class=""></path><path fill="#ffcf53" d="M504.5 362.35c0 76.59-62.09 138.68-138.68 138.68-5.65 0-11.21-.34-16.68-.99 68.72-8.24 122-66.74 122-137.69s-53.28-129.44-122-137.68c5.47-.65 11.03-.99 16.68-.99 76.59 0 138.68 62.08 138.68 138.67z" opacity="1" data-original="#ffcf53" class=""></path><circle cx="365.823" cy="362.353" r="105.316" fill="#ffebc5" transform="rotate(-45 365.785 362.447)" opacity="1" data-original="#ffc344" class=""></circle><path fill="#ff7745" d="M350.012 404.95c-6.962 0-13.925-2.65-19.224-7.951L312.189 378.4c-6.756-6.756-6.756-17.71 0-24.467 6.756-6.756 17.71-6.756 24.467 0l13.356 13.356 42.926-42.925c6.756-6.756 17.71-6.756 24.467 0 6.756 6.756 6.756 17.71 0 24.467L369.236 397c-5.3 5.3-12.262 7.95-19.224 7.95z" opacity="1" data-original="#f8eff4" class=""></path><path d="M99.102 426.467H22.5c-4.135 0-7.5-3.364-7.5-7.5V25.97c0-4.136 3.365-7.5 7.5-7.5h135.139v105.287c0 5.21 2.844 9.991 7.421 12.479a14.187 14.187 0 0 0 14.508-.563l45.279-29.367 45.279 29.368a14.18 14.18 0 0 0 14.508.562 14.192 14.192 0 0 0 7.421-12.479V18.47h135.139c4.136 0 7.5 3.364 7.5 7.5v58.895c0 4.143 3.357 7.5 7.5 7.5s7.5-3.357 7.5-7.5V25.97c0-12.406-10.094-22.5-22.5-22.5H22.5C10.093 3.47 0 13.563 0 25.97v392.997c0 12.406 10.093 22.5 22.5 22.5h76.602c4.142 0 7.5-3.357 7.5-7.5s-3.358-7.5-7.5-7.5zm177.955-304.179-44.481-28.851a14.22 14.22 0 0 0-15.455.001l-44.481 28.85V18.47h104.418v103.818z" fill="#000000" opacity="1" data-original="#000000" class=""></path><path d="M65.404 326.544c-6.893 0-12.5 5.607-12.5 12.5v41.617c0 6.892 5.607 12.5 12.5 12.5h100.083c6.893 0 12.5-5.608 12.5-12.5v-41.617c0-6.893-5.607-12.5-12.5-12.5zm97.583 51.617H67.904v-36.617h95.083z" fill="#000000" opacity="1" data-original="#000000" class=""></path><path d="M449.695 242.702v-125.15c0-4.143-3.357-7.5-7.5-7.5s-7.5 3.357-7.5 7.5v115.899c-20.534-11.015-43.985-17.274-68.872-17.274-80.603 0-146.177 65.574-146.177 146.177 0 22.985 5.34 44.744 14.833 64.113h-102.69c-4.142 0-7.5 3.357-7.5 7.5s3.358 7.5 7.5 7.5H242.96c26.052 40.319 71.392 67.064 122.864 67.064C446.426 508.53 512 442.956 512 362.353c0-49.418-24.655-93.181-62.305-119.651zM365.823 493.53c-72.331 0-131.177-58.846-131.177-131.177s58.846-131.177 131.177-131.177S497 290.022 497 362.353c0 72.332-58.846 131.177-131.177 131.177z" fill="#000000" opacity="1" data-original="#000000" class=""></path><path d="M365.823 249.538c-62.207 0-112.815 50.609-112.815 112.815 0 62.207 50.608 112.815 112.815 112.815 21.438 0 42.298-6.039 60.322-17.465a7.502 7.502 0 0 0 2.319-10.351 7.502 7.502 0 0 0-10.351-2.319c-15.619 9.902-33.701 15.135-52.291 15.135-53.936 0-97.815-43.88-97.815-97.815 0-53.936 43.88-97.815 97.815-97.815 53.936 0 97.815 43.88 97.815 97.815 0 22.851-8.045 45.083-22.653 62.603a7.5 7.5 0 1 0 11.521 9.605c16.852-20.21 26.132-45.854 26.132-72.208.002-62.206-50.607-112.815-112.814-112.815z" fill="#000000" opacity="1" data-original="#000000" class=""></path><path d="m387.636 319.061-37.624 37.622-8.053-8.053c-9.671-9.668-25.404-9.668-35.073 0-4.684 4.685-7.264 10.913-7.264 17.537 0 6.625 2.58 12.854 7.264 17.537l18.598 18.598c6.543 6.544 15.254 10.148 24.528 10.148 9.273 0 17.984-3.604 24.528-10.147l48.168-48.168c4.684-4.685 7.264-10.913 7.264-17.537 0-6.625-2.58-12.853-7.264-17.536a24.636 24.636 0 0 0-17.537-7.265c-6.624 0-12.853 2.58-17.535 7.264zm27.336 17.537a9.738 9.738 0 0 1-2.871 6.93l-48.168 48.168c-3.71 3.711-8.654 5.755-13.921 5.755-5.268 0-10.211-2.043-13.92-5.755l-18.6-18.599a9.734 9.734 0 0 1-2.87-6.93 9.738 9.738 0 0 1 2.871-6.93c1.91-1.911 4.42-2.866 6.93-2.866s5.02.955 6.93 2.866l13.355 13.355a7.502 7.502 0 0 0 10.607 0l42.928-42.926a9.735 9.735 0 0 1 6.929-2.87 9.737 9.737 0 0 1 6.931 2.871 9.745 9.745 0 0 1 2.869 6.931z" fill="#000000" opacity="1" data-original="#000000" class=""></path></g></svg>