<svg xmlns="http://www.w3.org/2000/svg" version="1.1" xmlns:xlink="http://www.w3.org/1999/xlink" width="48" height="48" x="0" y="0" viewBox="0 0 682.667 682.667" style="enable-background:new 0 0 512 512" xml:space="preserve" class=""><g><defs><clipPath id="a" clipPathUnits="userSpaceOnUse"><path d="M0 512h512V0H0Z" fill="#223339" opacity="1" data-original="#000000" class=""></path></clipPath></defs><path d="M0 0h388.934L234.307 175.902h-84.301z" style="fill-opacity:1;fill-rule:evenodd;stroke:none" transform="matrix(1.33333 0 0 -1.33333 82.044 668)" fill="#eff3f5" data-original="#ededed" class="" opacity="1"></path><g clip-path="url(#a)" transform="matrix(1.33333 0 0 -1.33333 0 682.667)"><path d="M0 0c-8.758-1.106-17.687 6.487-20.976 14.023-4.45 11.163-15.561 17.395-25.936 15.157-1.815-.142-3.629-.03-5.386.197-7.739 1.134-14.456 5.497-16.526 9.321l-1.785.991-9.128-16.204-9.354 16.601-1.785-1.019c-2.07-3.825-8.816-8.188-16.555-9.293a26.033 26.033 0 0 0-5.357-.227c-10.403 2.268-21.486-3.966-25.937-15.156C-142.013 6.884-150.97-.738-159.7.396L-177.332 31.7h-125.884c-10.998 0-19.984-8.979-19.984-19.971v-145.307c0-10.993 8.986-20.001 19.984-20.001H148.788c10.998 0 20.012 9.008 20.012 20.001V11.729c0 10.992-9.014 19.971-20.012 19.971H17.83z" style="fill-opacity:1;fill-rule:evenodd;stroke:none" transform="translate(333.2 410.429)" fill="#ff7745" data-original="#7ac943" class="" opacity="1"></path><path d="m0 0-28.402 50.485c2.579-4.702-9.61-14.023-22.224-13.172-10.403 2.265-21.486-3.996-25.937-15.157-3.684-8.386-15.334-13.6-21.939-12.324l10.261-18.218 17.632-31.304c8.73-1.134 17.687 6.488 20.975 13.995 4.451 11.19 15.534 17.424 25.937 15.156 1.814-.113 3.6-.027 5.357.227 7.739 1.105 14.485 5.468 16.554 9.293z" style="fill-opacity:1;fill-rule:evenodd;stroke:none" transform="translate(244.109 450.515)" fill="#eff3f5" data-original="#ededed" class="" opacity="1"></path><path d="m0 0 1.785-.991c2.07-3.824 8.787-8.188 16.526-9.322 1.757-.226 3.571-.338 5.386-.197 10.375 2.239 21.486-3.994 25.936-15.156 3.288-7.536 12.218-15.13 20.976-14.023l17.829 31.7L98.473 9.859c-6.577-1.303-18.254 3.938-21.911 12.325C72.111 33.345 61 39.578 50.625 37.341c-12.614-.85-24.802 8.471-22.223 13.172" style="fill-opacity:1;fill-rule:evenodd;stroke:none" transform="translate(262.59 450.118)" fill="#ccd6dc" data-original="#b3b3b3" class="" opacity="1"></path><path d="M0 0h.255" style="stroke-width:20.176;stroke-linecap:round;stroke-linejoin:round;stroke-miterlimit:10;stroke-dasharray:none;stroke-opacity:1" transform="translate(255.73 256.85)" fill="none" stroke="#223339" stroke-width="20.176" stroke-linecap="round" stroke-linejoin="round" stroke-miterlimit="10" stroke-dasharray="none" stroke-opacity="" data-original="#000000" opacity="1" class=""></path><path d="M0 0v-21.318c0-2.182-.778-4.066-2.331-5.653-1.555-1.587-3.457-2.38-5.705-2.38-2.117 0-4.003.793-5.655 2.38-1.654 1.587-2.48 3.471-2.48 5.653v56.32c0 2.182.794 4.098 2.381 5.751 1.587 1.651 3.538 2.478 5.853 2.478h25.994c1.984 0 3.686-.71 5.109-2.131 1.421-1.422 2.133-3.19 2.133-5.305 0-1.918-.695-3.604-2.084-5.057-1.388-1.455-3.109-2.181-5.158-2.181H0V14.575h15.279c2.116 0 3.918-.711 5.407-2.132 1.488-1.422 2.232-3.157 2.232-5.205 0-1.983-.729-3.685-2.183-5.106C19.28.709 17.461 0 15.279 0Z" style="fill-opacity:1;fill-rule:nonzero;stroke:none" transform="translate(84.6 338.085)" fill="#223339" data-original="#000000" class="" opacity="1"></path><path d="M0 0c0-2.182-.778-4.05-2.332-5.603-1.554-1.551-3.456-2.33-5.704-2.33-2.249 0-4.152.779-5.705 2.33C-15.295-4.05-16.072-2.148-16.072.1v56.915c0 2.115.809 4.015 2.431 5.701 1.62 1.685 3.522 2.529 5.704 2.529 2.183 0 4.051-.81 5.605-2.43C-.778 61.194 0 59.262 0 57.015Z" style="fill-opacity:1;fill-rule:nonzero;stroke:none" transform="translate(147.03 316.865)" fill="#223339" data-original="#000000" class="" opacity="1"></path><path d="m0 0 .297-36.787c0-2.248-.761-4.132-2.281-5.651-1.523-1.521-3.408-2.282-5.655-2.282-2.118 0-4.003.793-5.655 2.38-1.654 1.587-2.48 3.569-2.48 5.949v56.619c0 2.313.776 4.263 2.331 5.85 1.553 1.586 3.455 2.38 5.704 2.38 2.447 0 4.629-1.257 6.548-3.769l32.045-41.05-.297 36.787c0 2.115.794 3.999 2.381 5.652 1.587 1.651 3.472 2.479 5.655 2.479 2.182 0 4.067-.793 5.655-2.38a9.158 9.158 0 0 0 1.687-2.578c.396-.926.595-1.983.595-3.173v-57.213c0-2.315-.779-4.214-2.332-5.701-1.554-1.488-3.49-2.232-5.803-2.232-2.382 0-4.499 1.157-6.35 3.471z" style="fill-opacity:1;fill-rule:nonzero;stroke:none" transform="translate(188.406 353.652)" fill="#223339" data-original="#000000" class="" opacity="1"></path><path d="M0 0c0-2.182-.778-4.05-2.332-5.603-1.554-1.551-3.456-2.33-5.704-2.33-2.249 0-4.152.779-5.705 2.33C-15.295-4.05-16.072-2.148-16.072.1v56.915c0 2.115.809 4.015 2.431 5.701 1.62 1.685 3.522 2.529 5.704 2.529 2.183 0 4.051-.81 5.605-2.43C-.778 61.194 0 59.262 0 57.015Z" style="fill-opacity:1;fill-rule:nonzero;stroke:none" transform="translate(278.002 316.865)" fill="#223339" data-original="#000000" class="" opacity="1"></path><path d="M0 0v.495c0 2.182.66 3.999 1.984 5.454C3.307 7.402 4.96 8.131 6.945 8.131c1.19 0 3.537-.63 7.044-1.885 4.232-1.521 7.704-2.28 10.417-2.28 2.711 0 4.993.694 6.845 2.082 1.851 1.389 2.778 3.206 2.778 5.454 0 1.255-.265 2.346-.794 3.271-.529.926-1.522 1.719-2.976 2.38-1.455.66-4.365 1.653-8.73 2.975-6.747 1.917-11.377 3.702-13.89 5.354C2.744 28.655.297 33.48.297 39.96c0 6.544 2.481 11.931 7.441 16.162 4.961 4.23 11.244 6.346 18.85 6.346 5.556 0 10.202-1.009 13.939-3.025 3.736-2.016 5.606-4.545 5.606-7.585 0-2.049-.679-3.817-2.034-5.304-1.356-1.488-3.026-2.232-5.01-2.232-1.126 0-2.877.397-5.258 1.191l-2.877.991c-2.448.66-4.333.991-5.655.991-2.25 0-4.152-.579-5.705-1.735-1.555-1.157-2.331-2.595-2.331-4.313 0-1.323.694-2.546 2.083-3.669.992-.728 3.902-1.785 8.731-3.173 6.282-1.719 10.978-3.57 14.088-5.552 5.885-3.571 8.829-9.09 8.829-16.56 0-7.008-2.497-12.709-7.49-17.104-4.995-4.397-11.625-6.594-19.892-6.594-6.746 0-12.369 1.059-16.866 3.173C2.248-5.917 0-3.24 0 0" style="fill-opacity:1;fill-rule:nonzero;stroke:none" transform="translate(301.625 319.94)" fill="#223339" data-original="#000000" class="" opacity="1"></path><path d="M0 0v-22.211c0-2.248-.761-4.149-2.282-5.701-1.522-1.553-3.407-2.33-5.655-2.33-2.249 0-4.167.777-5.754 2.33-1.587 1.552-2.381 3.453-2.381 5.701v57.015c0 2.115.809 4.015 2.431 5.701 1.62 1.685 3.522 2.529 5.704 2.529 2.183 0 4.051-.81 5.605-2.43C-.778 38.983 0 37.051 0 34.804V14.576h30.358v20.228c0 2.115.81 4.015 2.431 5.701 1.62 1.685 3.488 2.529 5.606 2.529 2.182 0 4.067-.794 5.655-2.38 1.587-1.587 2.381-3.537 2.381-5.85v-57.015c0-2.116-.779-3.983-2.332-5.602-1.555-1.62-3.456-2.429-5.704-2.429-2.249 0-4.152.777-5.705 2.33-1.555 1.552-2.332 3.453-2.332 5.701V0z" style="fill-opacity:1;fill-rule:nonzero;stroke:none" transform="translate(392.058 339.076)" fill="#223339" data-original="#000000" class="" opacity="1"></path><path d="M0 0v162.898h-31.549V-82.951H0Z" style="fill-opacity:1;fill-rule:evenodd;stroke:none" transform="translate(61.533 93.951)" fill="#f5ac68" data-original="#ffa21f" class="" opacity="1"></path><path d="M0 0v245.85h-31.521V0Z" style="fill-opacity:1;fill-rule:evenodd;stroke:none" transform="translate(481.988 11)" fill="#f5ac68" data-original="#ffa21f" class="" opacity="1"></path><path d="M0 0h-181.556c-10.998 0-19.984 9.008-19.984 20.001v145.307c0 10.992 8.986 19.971 19.984 19.971h125.885m195.161 0h130.958c10.998 0 20.012-8.979 20.012-19.971V20.001C290.46 9.008 281.446 0 270.448 0H84.301" style="stroke-width:20.176;stroke-linecap:round;stroke-linejoin:round;stroke-miterlimit:10;stroke-dasharray:none;stroke-opacity:1" transform="translate(211.54 256.85)" fill="none" stroke="#223339" stroke-width="20.176" stroke-linecap="round" stroke-linejoin="round" stroke-miterlimit="10" stroke-dasharray="none" stroke-opacity="" data-original="#000000" opacity="1" class=""></path><path d="M0 0v-245.85h-31.549V0" style="stroke-width:20.176;stroke-linecap:round;stroke-linejoin:round;stroke-miterlimit:10;stroke-dasharray:none;stroke-opacity:1" transform="translate(61.533 256.85)" fill="none" stroke="#223339" stroke-width="20.176" stroke-linecap="round" stroke-linejoin="round" stroke-miterlimit="10" stroke-dasharray="none" stroke-opacity="" data-original="#000000" opacity="1" class=""></path><path d="M0 0c2.58-4.702-9.609-14.023-22.224-13.173-10.402 2.266-21.485-3.995-25.936-15.156-3.685-8.387-15.335-13.601-21.94-12.324l27.893-49.523c8.73-1.134 17.687 6.488 20.976 13.995 4.45 11.191 15.533 17.425 25.936 15.157 1.815-.114 3.6-.028 5.358.227 7.738 1.105 14.484 5.468 16.554 9.293l1.785 1.019M0 0l49.095-87.286" style="stroke-width:20.176;stroke-linecap:round;stroke-linejoin:round;stroke-miterlimit:10;stroke-dasharray:none;stroke-opacity:1" transform="translate(215.707 501)" fill="none" stroke="#223339" stroke-width="20.176" stroke-linecap="round" stroke-linejoin="round" stroke-miterlimit="10" stroke-dasharray="none" stroke-opacity="" data-original="#000000" opacity="1" class=""></path><path d="M0 0c3.657-8.387 15.334-13.628 21.911-12.324L-5.953-61.873c-8.758-1.106-17.688 6.487-20.976 14.023-4.45 11.162-15.561 17.395-25.936 15.157-1.815-.142-3.629-.03-5.386.197-7.739 1.134-14.456 5.497-16.526 9.321l-1.785.991 28.402 50.513c-2.579-4.701 9.609-14.021 22.223-13.172C-15.562 17.395-4.451 11.161 0 0Z" style="stroke-width:20.176;stroke-linecap:round;stroke-linejoin:round;stroke-miterlimit:10;stroke-dasharray:none;stroke-opacity:1" transform="translate(339.153 472.302)" fill="none" stroke="#223339" stroke-width="20.176" stroke-linecap="round" stroke-linejoin="round" stroke-miterlimit="10" stroke-dasharray="none" stroke-opacity="" data-original="#000000" opacity="1" class=""></path><path d="m0 0-49.124-87.284" style="stroke-width:20.176;stroke-linecap:round;stroke-linejoin:round;stroke-miterlimit:10;stroke-dasharray:none;stroke-opacity:1" transform="translate(290.993 500.63)" fill="none" stroke="#223339" stroke-width="20.176" stroke-linecap="round" stroke-linejoin="round" stroke-miterlimit="10" stroke-dasharray="none" stroke-opacity="" data-original="#000000" opacity="1" class=""></path><path d="M0 0v-245.85h-31.521V0" style="stroke-width:20.176;stroke-linecap:round;stroke-linejoin:round;stroke-miterlimit:10;stroke-dasharray:none;stroke-opacity:1" transform="translate(481.988 256.85)" fill="none" stroke="#223339" stroke-width="20.176" stroke-linecap="round" stroke-linejoin="round" stroke-miterlimit="10" stroke-dasharray="none" stroke-opacity="" data-original="#000000" opacity="1" class=""></path><path d="M0 0h388.934L234.307 175.902h-84.301z" style="stroke-width:20.176;stroke-linecap:round;stroke-linejoin:round;stroke-miterlimit:10;stroke-dasharray:none;stroke-opacity:1" transform="translate(61.533 11)" fill="none" stroke="#223339" stroke-width="20.176" stroke-linecap="round" stroke-linejoin="round" stroke-miterlimit="10" stroke-dasharray="none" stroke-opacity="" data-original="#000000" opacity="1" class=""></path><path d="M0 0v-35.952" style="stroke-width:20.176;stroke-linecap:round;stroke-linejoin:round;stroke-miterlimit:10;stroke-dasharray:none;stroke-opacity:1" transform="translate(253.69 186.902)" fill="none" stroke="#223339" stroke-width="20.176" stroke-linecap="round" stroke-linejoin="round" stroke-miterlimit="10" stroke-dasharray="none" stroke-opacity="" data-original="#000000" opacity="1" class=""></path><path d="M0 0v-34.817" style="stroke-width:20.176;stroke-linecap:round;stroke-linejoin:round;stroke-miterlimit:10;stroke-dasharray:none;stroke-opacity:1" transform="translate(255.93 81.995)" fill="none" stroke="#223339" stroke-width="20.176" stroke-linecap="round" stroke-linejoin="round" stroke-miterlimit="10" stroke-dasharray="none" stroke-opacity="" data-original="#000000" opacity="1" class=""></path></g></g></svg>