<svg xmlns="http://www.w3.org/2000/svg" version="1.1" xmlns:xlink="http://www.w3.org/1999/xlink" width="48" height="48" x="0" y="0" viewBox="0 0 512.001 512.001" style="enable-background:new 0 0 512 512" xml:space="preserve" class=""><g><path d="M490.023 490.269c-16.445 16.456-43.217 15.235-57.965-1.48L313.109 358.38l44.996-44.996 130.439 118.92c16.655 14.697 17.969 41.486 1.479 57.965z" style="" fill="#344c55" data-original="#57555c" class="" opacity="1"></path><path d="m313.249 271.958-.01-.01-42.056 41.896.01.01 41.916 44.526 44.996-44.996z" style="" fill="#fec459" data-original="#fec459" class=""></path><path d="M299.98 59.827c66.422 66.422 66.64 174.339.29 240.689-66.056 66.056-173.983 66.416-240.689-.29-66.384-66.384-66.384-174.015 0-240.399s174.015-66.384 240.399 0z" style="" fill="#ff7745" data-original="#e3f2ff" class="" opacity="1"></path><path d="M272.433 87.406c51.192 51.192 51.358 134.361.224 185.496-50.909 50.909-134.086 51.187-185.496-.224C36 221.517 36 138.567 87.162 87.405s134.11-51.16 185.271.001z" style="" fill="#ffffff" data-original="#ade6ff" class="" opacity="1"></path><path d="M251.024 81.035c5.52 0 9.999-4.48 9.999-9.999 0-5.52-4.48-9.999-9.999-9.999-5.52 0-9.999 4.48-9.999 9.999s4.48 9.999 9.999 9.999zM221.54 187.863 211.028 219.4l-10.512-31.536a9.999 9.999 0 0 0-9.486-6.837h-12.191l-18.104-72.42a9.997 9.997 0 0 0-9.7-7.573 9.998 9.998 0 0 0-9.7 7.573l-18.104 72.42H91.038c-5.522 0-9.999 4.478-9.999 9.999s4.478 9.999 9.999 9.999h39.996a9.998 9.998 0 0 0 9.7-7.573l10.298-41.19 10.298 41.19a9.997 9.997 0 0 0 9.7 7.573h12.791l17.719 53.157a9.999 9.999 0 0 0 18.972 0l17.719-53.157h32.789c5.522 0 9.999-4.478 9.999-9.999s-4.478-9.999-9.999-9.999h-39.996a9.995 9.995 0 0 0-9.484 6.836z" fill="#223339" opacity="1" data-original="#000000" class=""></path><path d="M307.3 52.756c-70.34-70.338-184.192-70.346-254.54 0-70.338 70.34-70.346 184.192 0 254.541 59.953 59.951 153.002 69.583 223.369 25.387.149.163 150.437 164.578 150.557 164.696 19.529 19.496 51.127 19.507 70.654-.037 20.763-20.746 18.855-54.085-1.865-72.476-12.935-11.817-144.352-131.608-162.916-148.531 44.371-70.429 34.724-163.595-25.259-223.58zm-13.847 268.967-.781-.781a181.048 181.048 0 0 0 28.207-28.197l23.003 20.972-30.188 30.188-19.921-21.849a16.762 16.762 0 0 0-.32-.333zm189.746 161.479c-12.368 12.376-32.481 11.402-43.503-1.15L327.183 358.698l31.493-31.492 123.382 112.487c13.441 12.434 12.713 31.947 1.141 43.509zM293.45 293.445c-62.549 62.557-163.775 62.483-226.547-.29-62.522-62.52-62.533-163.728 0-226.257 62.52-62.522 163.728-62.533 226.257 0 62.91 62.91 62.794 164.043.29 226.547z" fill="#223339" opacity="1" data-original="#000000" class=""></path><path d="M274.398 90.053c-4.265 3.51-4.876 9.811-1.367 14.075 39.424 47.902 36.041 117.13-7.87 161.031-46.805 46.815-122.869 46.821-169.682-.002-46.816-46.806-46.82-122.87.001-169.681 30.275-30.274 74.852-42.121 116.342-30.914 5.33 1.438 10.821-1.715 12.261-7.046 1.439-5.331-1.715-10.82-7.046-12.261-48.379-13.07-100.377.756-135.698 36.078-54.632 54.622-54.638 143.339-.002 197.965 54.622 54.633 143.339 54.638 197.965.002 51.258-51.249 54.477-132.831 9.171-187.879-3.509-4.264-9.81-4.878-14.075-1.368z" fill="#223339" opacity="1" data-original="#000000" class=""></path></g></svg>