<svg xmlns="http://www.w3.org/2000/svg" version="1.1" xmlns:xlink="http://www.w3.org/1999/xlink" width="24" height="24" x="0" y="0" viewBox="0 0 512 512" style="enable-background:new 0 0 512 512" xml:space="preserve" class=""><g><path fill="#fece49" d="m216.21 338.705-31.457 110.699H256l26.231-58.922L256 320.846z" opacity="1" data-original="#fece49" class=""></path><path fill="#fea44a" d="M295.789 338.705 256 320.846v128.558h71.247z" opacity="1" data-original="#fea44a" class=""></path><path fill="#fece49" d="M107.27 230.629 0 123.325V93.162c0-37.845 30.79-68.635 68.635-68.635s68.635 30.79 68.635 68.635v72.57zM30 110.898l89.812 89.812L107.27 93.162c0-21.303-17.332-38.635-38.635-38.635S30 71.859 30 93.162z" opacity="1" data-original="#fece49" class=""></path><path fill="#fea44a" d="M374.73 181.661V93.162c0-37.845 30.789-68.635 68.635-68.635S512 55.317 512 93.162v30.163L404.713 230.612zm68.635-127.134c-21.304 0-38.635 17.332-38.635 38.635l-10.069 105.074L482 110.898V93.162c0-21.303-17.331-38.635-38.635-38.635z" opacity="1" data-original="#fea44a" class=""></path><path fill="#fded76" d="M126.612 512H256l18.305-38.798L256 434.404h-98.176z" opacity="1" data-original="#fded76" class=""></path><path fill="#fece49" d="m385.389 512-31.212-77.596H256V512z" opacity="1" data-original="#fece49" class=""></path><path fill="#fded76" d="M107.27 0v230.629l108.94 108.076H256l64.694-179.918L256 0z" opacity="1" data-original="#fded76" class=""></path><path fill="#fece49" d="M404.73 230.629V0H256v338.705h39.789z" opacity="1" data-original="#fece49" class=""></path><path fill="#fece49" d="M217.113 88.078v30h23.526v92.883H256l7.319-56.458L256 88.078z" opacity="1" data-original="#fece49" class=""></path><path fill="#fea44a" d="M256 88.078h14.639v122.883H256z" opacity="1" data-original="#fea44a" class=""></path></g></svg>