<svg xmlns="http://www.w3.org/2000/svg" version="1.1" xmlns:xlink="http://www.w3.org/1999/xlink" width="32" height="32" x="0" y="0" viewBox="0 0 32 32" style="enable-background:new 0 0 512 512" xml:space="preserve" class=""><g><g data-name="Layer 2"><path d="M5 15h7a3 3 0 0 0 3-3V5a3 3 0 0 0-3-3H5a3 3 0 0 0-3 3v7a3 3 0 0 0 3 3zM4 5a1 1 0 0 1 1-1h7a1 1 0 0 1 1 1v7a1 1 0 0 1-1 1H5a1 1 0 0 1-1-1zM27 2h-7a3 3 0 0 0-3 3v7a3 3 0 0 0 3 3h7a3 3 0 0 0 3-3V5a3 3 0 0 0-3-3zm1 10a1 1 0 0 1-1 1h-7a1 1 0 0 1-1-1V5a1 1 0 0 1 1-1h7a1 1 0 0 1 1 1zM5 30h7a3 3 0 0 0 3-3v-7a3 3 0 0 0-3-3H5a3 3 0 0 0-3 3v7a3 3 0 0 0 3 3zM4 20a1 1 0 0 1 1-1h7a1 1 0 0 1 1 1v7a1 1 0 0 1-1 1H5a1 1 0 0 1-1-1zM27 17h-7a3 3 0 0 0-3 3v7a3 3 0 0 0 3 3h7a3 3 0 0 0 3-3v-7a3 3 0 0 0-3-3zm1 10a1 1 0 0 1-1 1h-7a1 1 0 0 1-1-1v-7a1 1 0 0 1 1-1h7a1 1 0 0 1 1 1z" fill="#0f2027" opacity="1" data-original="#000000" class=""></path></g></g></svg>