<?xml version="1.0" encoding="utf-8"?>
<!-- Generator: Adobe Illustrator 25.2.0, SVG Export Plug-In . SVG Version: 6.00 Build 0)  -->
<svg version="1.1" id="Layer_1" xmlns="http://www.w3.org/2000/svg" xmlns:xlink="http://www.w3.org/1999/xlink" x="0px" y="0px"
	 width="48" height="48" viewBox="0 0 512 512" enable-background="new 0 0 512 512" xml:space="preserve">
<g>
	<path fill="#F6BF73" d="M482,65.9H138c-11,0-20,9-20,20v344c0,11,9,20,20,20h344c11,0,20-9,20-20v-344C502,74.9,493,65.9,482,65.9z
		"/>
	<path fill="#FF7745" d="M252.4,65.9h115.2v112l-28.8-28.8L310,177.9l-28.8-28.8l-28.8,28.8L252.4,65.9z"/>
	<path fill="#FCDDCA" d="M309,260l-36.1-27.1c-19.5-14.6-43.1-22.5-67.5-22.5l-36.6,0l0,0L96,283.2l0,0l0,18.6
		c0,24.6,9.7,48.2,27.1,65.5l77,77c7.4,7.4,19.3,7.4,26.7,0c7.1-7.1,7.3-18.3,0.9-25.7l12.7,12.7c6.8,6.8,17.9,7.8,25.4,1.7
		c8.6-6.9,9.4-19.2,2.5-27.1l11.4,11.4c6.7,6.7,18.5,7.6,25.8,1.5c8.6-7.2,9-20.1,1.3-27.8L295,379.3c7.9,6.9,20.2,6.1,27.1-2.5
		c6.1-7.5,5.1-18.6-1.7-25.4l-77.1-77.1c-1.3-1.3,0.4-3.5,2-2.5l38.5,24.6c9.9,6.3,22.9,3.8,29.9-5.6C320.8,281,318.8,267.2,309,260
		L309,260z"/>
	<path fill="#FFFFFF" d="M93.3,286l76.4-76.4L10,49.9v152.8L93.3,286z"/>
	<path fill="#223339" d="M482,55.9H138c-16.5,0-30,13.5-30,30v47.9L17.1,42.8c-3.9-3.9-10.2-3.9-14.1,0C-1,46.7-1,53.1,2.9,57
		l117.8,117.8L58.5,237l-41.4-41.4c-3.9-3.9-10.2-3.9-14.1,0c-3.9,3.9-3.9,10.2,0,14.1l83.1,83.1l0,9c0,23,7.9,45.5,22,63.5v64.5
		c0,16.5,13.5,30,30,30h344c16.5,0,30-13.5,30-30v-228c0-5.5-4.5-10-10-10s-10,4.5-10,10v228c0,5.5-4.5,10-10,10H273.2
		c3.1-2.7,5.5-6,7.2-9.8c4,2,8.4,3,12.9,3c7.7,0,15-3,20.4-8.5c5.5-5.5,8.5-12.7,8.5-20.4c0-4.6-1.1-8.9-3-12.9
		c3.2-1.4,6.1-3.5,8.6-5.9c5.5-5.5,8.5-12.7,8.5-20.4c0-7.7-3-15-8.5-20.4l-34.4-34.4c10.6,0.8,21.3-3.8,28-12.9l0.3-0.4
		c10.5-14.3,7.5-34.6-6.8-45.1c-9-6.7-21.1-15.7-36.1-26.9c-21-15.7-47-24.4-73.2-24.4h-0.1l-30.8,0L128,153.8V85.9
		c0-5.5,4.5-10,10-10h104.4v102c0,4,2.4,7.7,6.2,9.2c3.7,1.6,8,0.7,10.9-2.2l21.7-21.7l21.7,21.7c3.9,3.9,10.2,3.9,14.1,0l21.7-21.7
		l21.7,21.7c2.9,2.9,7.2,3.7,10.9,2.2c3.7-1.5,6.2-5.2,6.2-9.2v-102H482c5.5,0,10,4.5,10,10v36c0,5.5,4.5,10,10,10s10-4.5,10-10v-36
		C512,69.4,498.5,55.9,482,55.9z M128,429.9v-43.5l32.7,32.7l0,0l20.8,20.8H138C132.5,439.9,128,435.4,128,429.9L128,429.9z
		 M205.5,220.4h0.1c21.9,0,43.7,7.2,61.3,20.4c12,9,24.1,18,36.1,27c5.4,4,6.6,11.8,2.5,17.3l-0.3,0.4c-3.7,5-10.7,6.3-15.9,2.9
		l-38.4-24.7c-5-3.2-11.6-2.2-15.3,2.5c-3.7,4.6-3.4,11.3,0.8,15.5l77.2,77.2c1.7,1.7,2.6,3.9,2.6,6.3c0,2.4-0.9,4.6-2.6,6.3
		c-1.7,1.7-3.9,2.6-6.3,2.6c-2,0-3.9-0.7-5.5-1.9l-38.7-38.7c-0.3-0.3-0.5-0.5-0.8-0.7l-4-4c-3.9-3.9-10.2-3.9-14.1,0
		c-3.9,3.9-3.9,10.2,0,14.1l42.7,42.7c0.4,0.4,0.9,0.9,1.4,1.3l11.3,11.3c1.7,1.7,2.6,3.9,2.6,6.3c0,2.4-0.9,4.6-2.6,6.3
		c-1.7,1.7-3.9,2.6-6.3,2.6c-2.4,0-4.6-0.9-6.3-2.6l-11.3-11.3c-0.4-0.5-0.8-0.9-1.3-1.4l-38-38c-0.3-0.3-0.6-0.5-0.8-0.7l-4-4
		c-3.9-3.9-10.2-3.9-14.1,0c-3.9,3.9-3.9,10.2,0,14.1l43.5,43.5c2.7,3.5,2.5,8.6-0.7,11.8c-3.5,3.5-9.1,3.5-12.6,0L235.1,412
		c-0.4-0.5-0.8-0.9-1.3-1.4l-24-24c-0.3-0.3-0.6-0.5-0.8-0.7l-4-4c-3.9-3.9-10.2-3.9-14.1,0s-3.9,10.2,0,14.1l29.5,29.5
		c1.2,1.6,1.9,3.5,1.9,5.5c0,2.4-0.9,4.6-2.6,6.3c-1.7,1.7-3.9,2.6-6.3,2.6s-4.6-0.9-6.3-2.6l-52.4-52.4c0,0,0,0,0,0l-24.6-24.6
		c-15.4-15.4-24.2-36.7-24.2-58.4l0-14.5l66.9-66.9L205.5,220.4z M93.3,271.8l-20.7-20.7l62.2-62.2l20.7,20.7L93.3,271.8z
		 M357.6,153.7L345.9,142c-3.9-3.9-10.2-3.9-14.1,0L310,163.7L288.3,142c-1.9-1.9-4.4-2.9-7.1-2.9c-2.7,0-5.2,1.1-7.1,2.9
		l-11.7,11.7V75.9h95.2L357.6,153.7z"/>
	<path fill="#223339" d="M448,339.1h-64c-5.5,0-10,4.5-10,10s4.5,10,10,10h64c5.5,0,10-4.5,10-10S453.5,339.1,448,339.1z M448,380.3
		h-43.3c-5.5,0-10,4.5-10,10c0,5.5,4.5,10,10,10H448c5.5,0,10-4.5,10-10C458,384.8,453.5,380.3,448,380.3z M364.7,380.3
		c-2.6,0-5.2,1.1-7.1,2.9c-1.9,1.9-2.9,4.4-2.9,7.1c0,2.6,1.1,5.2,2.9,7.1c1.9,1.9,4.4,2.9,7.1,2.9c2.6,0,5.2-1.1,7.1-2.9
		c1.9-1.9,2.9-4.4,2.9-7.1c0-2.6-1.1-5.2-2.9-7.1C369.9,381.4,367.3,380.3,364.7,380.3z M502,151.9c-2.7,0-5.2,1.1-7.1,2.9
		c-1.9,1.9-2.9,4.4-2.9,7.1c0,2.6,1.1,5.2,2.9,7.1c1.9,1.9,4.4,2.9,7.1,2.9s5.2-1.1,7.1-2.9c1.9-1.9,2.9-4.4,2.9-7.1
		c0-2.6-1.1-5.2-2.9-7.1C507.2,152.9,504.7,151.9,502,151.9z"/>
</g>
</svg>
