<svg xmlns="http://www.w3.org/2000/svg" version="1.1" xmlns:xlink="http://www.w3.org/1999/xlink" width="64" height="64" x="0" y="0" viewBox="0 0 682.667 682.667" style="enable-background:new 0 0 512 512;margin-bottom: 1.5rem;" xml:space="preserve" class=""><g><defs><clipPath id="a" clipPathUnits="userSpaceOnUse"><path d="M0 512h512V0H0Z" fill="#223339" opacity="1" data-original="#000000" class=""></path></clipPath></defs><g clip-path="url(#a)" transform="matrix(1.33333 0 0 -1.33333 0 682.667)"><path d="M0 0v-457c0-11.05-8.96-20-20-20h-336.46c-11.04 0-20 8.95-20 20V0c0 11.05 8.96 20 20 20H-20C-8.96 20 0 11.05 0 0" style="fill-opacity:1;fill-rule:nonzero;stroke:none" transform="translate(426.845 484.5)" fill="#f6b736" data-original="#fea714" class="" opacity="1"></path><path d="M0 0v-457c0-11.05-8.96-20-20-20h-19.69c11.04 0 20 8.95 20 20V0c0 11.05-8.96 20-20 20H-20C-8.96 20 0 11.05 0 0" style="fill-opacity:1;fill-rule:nonzero;stroke:none" transform="translate(426.845 484.5)" fill="#fea13c" data-original="#fd9a01" class="" opacity="1"></path><path d="M0 0v-113.06c-8.58-4.35-18.28-6.8-28.56-6.8-34.97 0-63.33 28.36-63.33 63.33 0 34.98 28.36 63.33 63.33 63.33C-18.28 6.8-8.58 4.35 0 0" style="fill-opacity:1;fill-rule:nonzero;stroke:none" transform="translate(426.845 390.59)" fill="#fea13c" data-original="#fd9a01" class="" opacity="1"></path><path d="M0 0v-417.09c0-5.18-4.2-9.38-9.39-9.38h-292.72c-5.19 0-9.39 4.2-9.39 9.38V0c0 5.18 4.2 9.39 9.39 9.39H-9.39C-4.2 9.39 0 5.18 0 0" style="fill-opacity:1;fill-rule:nonzero;stroke:none" transform="translate(394.365 464.89)" fill="#ffffff" data-original="#f8f3f1" class="" opacity="1"></path><path d="M0 0c0-4.54-3.69-8.23-8.23-8.23h-117.18c-4.54 0-8.23 3.69-8.23 8.23v13.4H0Zm-164.32 51.05V23.4c0-5.52 4.48-10 10-10h5.68V0c0-12.81 10.42-23.23 23.23-23.23H-8.23C4.58-23.23 15-12.81 15 0v13.4h5.68c5.52 0 10 4.48 10 10v27.65z" style="fill-opacity:1;fill-rule:nonzero;stroke:none" transform="translate(305.435 423.23)" fill="#e1e3e5" data-original="#eee2dd" class="" opacity="1"></path><path d="M0 0v-417.087c0-5.182-4.206-9.388-9.388-9.388H-31.12c5.182 0 9.388 4.206 9.388 9.388V0c0 5.182-4.206 9.388-9.388 9.388h21.732C-4.206 9.388 0 5.182 0 0" style="fill-opacity:1;fill-rule:nonzero;stroke:none" transform="translate(394.366 464.892)" fill="#e1e3e5" data-original="#eee2dd" class="" opacity="1"></path><path d="M0 0v310.387a9.388 9.388 0 0 1-9.388 9.388h-292.726a9.388 9.388 0 0 1-9.388-9.388v-417.082a9.388 9.388 0 0 1 9.388-9.388H-9.388A9.388 9.388 0 0 1 0-106.695V-34" style="stroke-width:15;stroke-linecap:round;stroke-linejoin:round;stroke-miterlimit:10;stroke-dasharray:none;stroke-opacity:1" transform="translate(394.366 154.5)" fill="none" stroke="#223339" stroke-width="15" stroke-linecap="round" stroke-linejoin="round" stroke-miterlimit="10" stroke-dasharray="none" stroke-opacity="" data-original="#000000" class="" opacity="1"></path><path d="M0 0h242.203" style="stroke-width:15;stroke-linecap:round;stroke-linejoin:round;stroke-miterlimit:10;stroke-dasharray:none;stroke-opacity:1" transform="translate(117.514 371.672)" fill="none" stroke="#223339" stroke-width="15" stroke-linecap="round" stroke-linejoin="round" stroke-miterlimit="10" stroke-dasharray="none" stroke-opacity="" data-original="#000000" class="" opacity="1"></path><path d="M0 0c22.76 1.186 44.143 17.254 51.12 39.07.87 2.721.12 5.777-2.018 7.67-3.717 3.291-8.238.564-11.292-2.368-7.804-7.491-13.106-17.562-14.749-28.269-.605-3.945.156-8.047 2.539-11.249 5.757-7.739 15.744-4.735 22.711-.125 8.648 5.723 9.41 1.621 9.661.666C59.337.2 65.754 1.376 69.899 3.537a83.07 83.07 0 0 1 13.041 8.438c2.528 1.993 6.154.069 6.056-3.148l-.002-.084c-.072-2.797 1.092-6.15 3.84-6.678 1.38-.265 2.776.281 4.056.862a57.646 57.646 0 0 1 14.045 9.054c1.329 1.161 3.294 1.28 4.698.211 14.592-11.097 35.658-9.292 54.181-6.758" style="stroke-width:15;stroke-linecap:round;stroke-linejoin:round;stroke-miterlimit:10;stroke-dasharray:none;stroke-opacity:1" transform="translate(123.824 81.752)" fill="none" stroke="#223339" stroke-width="15" stroke-linecap="round" stroke-linejoin="round" stroke-miterlimit="10" stroke-dasharray="none" stroke-opacity="" data-original="#000000" class="" opacity="1"></path><path d="M0 0v-74c0-11.046 8.954-20 20-20h336.455c11.045 0 20 8.954 20 20v457c0 11.046-8.955 20-20 20H20c-11.046 0-20-8.954-20-20V34" style="stroke-width:15;stroke-linecap:round;stroke-linejoin:round;stroke-miterlimit:10;stroke-dasharray:none;stroke-opacity:1" transform="translate(50.388 101.5)" fill="none" stroke="#223339" stroke-width="15" stroke-linecap="round" stroke-linejoin="round" stroke-miterlimit="10" stroke-dasharray="none" stroke-opacity="" data-original="#000000" class="" opacity="1"></path><path d="M0 0h-175c-5.523 0-10 4.478-10 10v42.867H10V10C10 4.478 5.522 0 0 0" style="fill-opacity:1;fill-rule:nonzero;stroke:none" transform="translate(326.115 451.633)" fill="#7d929b" data-original="#58be92" class="" opacity="1"></path><path d="M0 0v-42.87c0-5.52-4.48-10-10-10h-19.69c5.52 0 10 4.48 10 10V0Z" style="fill-opacity:1;fill-rule:nonzero;stroke:none" transform="translate(336.115 504.5)" fill="#4a6b7d" data-original="#22b280" class="" opacity="1"></path><path d="M0 0h104.615c5.523 0 10 4.478 10 10v42.867h-195V10c0-5.522 4.477-10 10-10H-34" style="stroke-width:15;stroke-linecap:round;stroke-linejoin:round;stroke-miterlimit:10;stroke-dasharray:none;stroke-opacity:1" transform="translate(221.5 451.633)" fill="none" stroke="#223339" stroke-width="15" stroke-linecap="round" stroke-linejoin="round" stroke-miterlimit="10" stroke-dasharray="none" stroke-opacity="" data-original="#000000" class="" opacity="1"></path><path d="M0 0v-19.402c0-8.688-7.042-15.731-15.73-15.731h-117.184c-8.688 0-15.73 7.043-15.73 15.731V0" style="stroke-width:15;stroke-linecap:round;stroke-linejoin:round;stroke-miterlimit:10;stroke-dasharray:none;stroke-opacity:1" transform="translate(312.937 451.633)" fill="none" stroke="#223339" stroke-width="15" stroke-linecap="round" stroke-linejoin="round" stroke-miterlimit="10" stroke-dasharray="none" stroke-opacity="" data-original="#000000" class="" opacity="1"></path><path d="M0 0h.964" style="stroke-width:15;stroke-linecap:round;stroke-linejoin:round;stroke-miterlimit:10;stroke-dasharray:none;stroke-opacity:1" transform="translate(175.802 478.066)" fill="none" stroke="#223339" stroke-width="15" stroke-linecap="round" stroke-linejoin="round" stroke-miterlimit="10" stroke-dasharray="none" stroke-opacity="" data-original="#000000" class="" opacity="1"></path><path d="M0 0h.964" style="stroke-width:15;stroke-linecap:round;stroke-linejoin:round;stroke-miterlimit:10;stroke-dasharray:none;stroke-opacity:1" transform="translate(300.464 478.066)" fill="none" stroke="#223339" stroke-width="15" stroke-linecap="round" stroke-linejoin="round" stroke-miterlimit="10" stroke-dasharray="none" stroke-opacity="" data-original="#000000" class="" opacity="1"></path><path d="M0 0c0-34.975-28.353-63.328-63.328-63.328S-126.656-34.975-126.656 0s28.353 63.328 63.328 63.328S0 34.975 0 0" style="fill-opacity:1;fill-rule:nonzero;stroke:none" transform="translate(461.615 351.672)" fill="#f6845a" data-original="#bbec6b" class="" opacity="1"></path><path d="M0 0c0-34.97-28.35-63.33-63.33-63.33-3.31 0-6.56.25-9.74.74C-42.72-57.9-19.48-31.66-19.48 0c0 31.67-23.24 57.9-53.59 62.58 3.18.5 6.43.75 9.74.75C-28.35 63.33 0 34.98 0 0" style="fill-opacity:1;fill-rule:nonzero;stroke:none" transform="translate(461.615 351.67)" fill="#f15921" data-original="#a1e62d" class="" opacity="1"></path><path d="M0 0c0-34.975-28.353-63.328-63.328-63.328S-126.656-34.975-126.656 0s28.353 63.328 63.328 63.328S0 34.975 0 0Z" style="stroke-width:15;stroke-linecap:round;stroke-linejoin:round;stroke-miterlimit:10;stroke-dasharray:none;stroke-opacity:1" transform="translate(461.615 351.672)" fill="none" stroke="#223339" stroke-width="15" stroke-linecap="round" stroke-linejoin="round" stroke-miterlimit="10" stroke-dasharray="none" stroke-opacity="" data-original="#000000" class="" opacity="1"></path><path d="m0 0 11.667-11.667 40 40" style="stroke-width:15;stroke-linecap:round;stroke-linejoin:round;stroke-miterlimit:10;stroke-dasharray:none;stroke-opacity:1" transform="translate(372.806 343.338)" fill="none" stroke="#223339" stroke-width="15" stroke-linecap="round" stroke-linejoin="round" stroke-miterlimit="10" stroke-dasharray="none" stroke-opacity="" data-original="#000000" class="" opacity="1"></path><path d="M0 0h-29a5 5 0 0 0-5 5v29a5 5 0 0 0 5 5H0a5 5 0 0 0 5-5V5a5 5 0 0 0-5-5" style="fill-opacity:1;fill-rule:nonzero;stroke:none" transform="translate(155.99 289.894)" fill="#f6845a" data-original="#bbec6b" class="" opacity="1"></path><path d="M0 0h-29a5 5 0 0 0-5 5v29a5 5 0 0 0 5 5H0a5 5 0 0 0 5-5V5a5 5 0 0 0-5-5Z" style="stroke-width:15;stroke-linecap:round;stroke-linejoin:round;stroke-miterlimit:10;stroke-dasharray:none;stroke-opacity:1" transform="translate(155.99 289.894)" fill="none" stroke="#223339" stroke-width="15" stroke-linecap="round" stroke-linejoin="round" stroke-miterlimit="10" stroke-dasharray="none" stroke-opacity="" data-original="#000000" class="" opacity="1"></path><path d="M0 0h1.014" style="stroke-width:15;stroke-linecap:round;stroke-linejoin:round;stroke-miterlimit:10;stroke-dasharray:none;stroke-opacity:1" transform="translate(196.89 271.316)" fill="none" stroke="#223339" stroke-width="15" stroke-linecap="round" stroke-linejoin="round" stroke-miterlimit="10" stroke-dasharray="none" stroke-opacity="" data-original="#000000" class="" opacity="1"></path><path d="M0 0h1.015" style="stroke-width:15;stroke-linecap:round;stroke-linejoin:round;stroke-miterlimit:10;stroke-dasharray:none;stroke-opacity:1" transform="translate(220.629 271.316)" fill="none" stroke="#223339" stroke-width="15" stroke-linecap="round" stroke-linejoin="round" stroke-miterlimit="10" stroke-dasharray="none" stroke-opacity="" data-original="#000000" class="" opacity="1"></path><path d="M0 0h1.014" style="stroke-width:15;stroke-linecap:round;stroke-linejoin:round;stroke-miterlimit:10;stroke-dasharray:none;stroke-opacity:1" transform="translate(244.37 271.316)" fill="none" stroke="#223339" stroke-width="15" stroke-linecap="round" stroke-linejoin="round" stroke-miterlimit="10" stroke-dasharray="none" stroke-opacity="" data-original="#000000" class="" opacity="1"></path><path d="M0 0h1.015" style="stroke-width:15;stroke-linecap:round;stroke-linejoin:round;stroke-miterlimit:10;stroke-dasharray:none;stroke-opacity:1" transform="translate(268.109 271.316)" fill="none" stroke="#223339" stroke-width="15" stroke-linecap="round" stroke-linejoin="round" stroke-miterlimit="10" stroke-dasharray="none" stroke-opacity="" data-original="#000000" class="" opacity="1"></path><path d="M0 0h163.336" style="stroke-width:15;stroke-linecap:round;stroke-linejoin:round;stroke-miterlimit:10;stroke-dasharray:none;stroke-opacity:1" transform="translate(194.17 300.731)" fill="none" stroke="#223339" stroke-width="15" stroke-linecap="round" stroke-linejoin="round" stroke-miterlimit="10" stroke-dasharray="none" stroke-opacity="" data-original="#000000" class="" opacity="1"></path><path d="M0 0h44.024" style="stroke-width:15;stroke-linecap:round;stroke-linejoin:round;stroke-miterlimit:10;stroke-dasharray:none;stroke-opacity:1" transform="translate(194.17 328.894)" fill="none" stroke="#223339" stroke-width="15" stroke-linecap="round" stroke-linejoin="round" stroke-miterlimit="10" stroke-dasharray="none" stroke-opacity="" data-original="#000000" class="" opacity="1"></path><path d="M0 0h-29a5 5 0 0 0-5 5v29a5 5 0 0 0 5 5H0a5 5 0 0 0 5-5V5a5 5 0 0 0-5-5" style="fill-opacity:1;fill-rule:nonzero;stroke:none" transform="translate(155.99 189.684)" fill="#f6845a" data-original="#bbec6b" class="" opacity="1"></path><path d="M0 0h-29a5 5 0 0 0-5 5v29a5 5 0 0 0 5 5H0a5 5 0 0 0 5-5V5a5 5 0 0 0-5-5Z" style="stroke-width:15;stroke-linecap:round;stroke-linejoin:round;stroke-miterlimit:10;stroke-dasharray:none;stroke-opacity:1" transform="translate(155.99 189.684)" fill="none" stroke="#223339" stroke-width="15" stroke-linecap="round" stroke-linejoin="round" stroke-miterlimit="10" stroke-dasharray="none" stroke-opacity="" data-original="#000000" class="" opacity="1"></path><path d="M0 0h1.014" style="stroke-width:15;stroke-linecap:round;stroke-linejoin:round;stroke-miterlimit:10;stroke-dasharray:none;stroke-opacity:1" transform="translate(196.89 171.106)" fill="none" stroke="#223339" stroke-width="15" stroke-linecap="round" stroke-linejoin="round" stroke-miterlimit="10" stroke-dasharray="none" stroke-opacity="" data-original="#000000" class="" opacity="1"></path><path d="M0 0h1.015" style="stroke-width:15;stroke-linecap:round;stroke-linejoin:round;stroke-miterlimit:10;stroke-dasharray:none;stroke-opacity:1" transform="translate(220.629 171.106)" fill="none" stroke="#223339" stroke-width="15" stroke-linecap="round" stroke-linejoin="round" stroke-miterlimit="10" stroke-dasharray="none" stroke-opacity="" data-original="#000000" class="" opacity="1"></path><path d="M0 0h1.014" style="stroke-width:15;stroke-linecap:round;stroke-linejoin:round;stroke-miterlimit:10;stroke-dasharray:none;stroke-opacity:1" transform="translate(244.37 171.106)" fill="none" stroke="#223339" stroke-width="15" stroke-linecap="round" stroke-linejoin="round" stroke-miterlimit="10" stroke-dasharray="none" stroke-opacity="" data-original="#000000" class="" opacity="1"></path><path d="M0 0h1.015" style="stroke-width:15;stroke-linecap:round;stroke-linejoin:round;stroke-miterlimit:10;stroke-dasharray:none;stroke-opacity:1" transform="translate(268.109 171.106)" fill="none" stroke="#223339" stroke-width="15" stroke-linecap="round" stroke-linejoin="round" stroke-miterlimit="10" stroke-dasharray="none" stroke-opacity="" data-original="#000000" class="" opacity="1"></path><path d="M0 0h163.336" style="stroke-width:15;stroke-linecap:round;stroke-linejoin:round;stroke-miterlimit:10;stroke-dasharray:none;stroke-opacity:1" transform="translate(194.17 200.52)" fill="none" stroke="#223339" stroke-width="15" stroke-linecap="round" stroke-linejoin="round" stroke-miterlimit="10" stroke-dasharray="none" stroke-opacity="" data-original="#000000" class="" opacity="1"></path><path d="M0 0h44.024" style="stroke-width:15;stroke-linecap:round;stroke-linejoin:round;stroke-miterlimit:10;stroke-dasharray:none;stroke-opacity:1" transform="translate(194.17 228.684)" fill="none" stroke="#223339" stroke-width="15" stroke-linecap="round" stroke-linejoin="round" stroke-miterlimit="10" stroke-dasharray="none" stroke-opacity="" data-original="#000000" class="" opacity="1"></path></g></g></svg>