<svg xmlns="http://www.w3.org/2000/svg" version="1.1" xmlns:xlink="http://www.w3.org/1999/xlink" width="24" height="24" x="0" y="0" viewBox="0 0 16.933 16.933" style="enable-background:new 0 0 512 512" xml:space="preserve" class=""><g><path fill="#42a5f5" d="m8.352 11.744 1.897 4.517c.092.216.4.214.488-.004l.732-1.822 1.852.742c.22.09.438-.131.344-.35l-1.776-4.23a.265.265 0 0 0-.252-.162c-.05.001-.1.017-.142.045a5.154 5.154 0 0 1-2.898.896.265.265 0 0 0-.245.368z" opacity="1" data-original="#42a5f5" class=""></path><path fill="#42a5f5" d="m5.106 10.449-1.838 4.379a.265.265 0 0 0 .344.35l1.852-.743.732 1.822c.089.218.396.22.488.004l1.9-4.53a.265.265 0 0 0-.23-.366c-1.03-.05-2.004-.43-2.845-1.025-.173-.122-.335-.054-.403.109z" opacity="1" data-original="#42a5f5" class=""></path><path fill="#b0bec5" d="M8.598.529c-3.138 0-5.687 2.549-5.687 5.687s2.549 5.69 5.687 5.69c3.139 0 5.69-2.551 5.69-5.69S11.737.53 8.598.53z" opacity="1" data-original="#b0bec5" class=""></path><path fill="#eceff1" d="M8.598 1.851a4.369 4.369 0 0 0-4.365 4.365 4.37 4.37 0 0 0 4.365 4.368 4.37 4.37 0 0 0 4.366-4.368 4.369 4.369 0 0 0-4.366-4.365z" opacity="1" data-original="#eceff1" class=""></path><path fill="#b0bec5" d="M8.596 3.968c-.874 0-1.585.713-1.585 1.588a.265.265 0 1 0 .527 0c0-.59.468-1.058 1.058-1.058.613 0 1.06.36 1.06 1.058 0 .653-.526 1.02-.964 1.383-.419.347-.78.632-1.316 1.055a.265.265 0 0 0 .162.472H9.92a.265.265 0 1 0 0-.529H8.294c.239-.19.5-.394.736-.59.406-.336 1.154-.856 1.154-1.79 0-.951-.735-1.589-1.588-1.589z" opacity="1" data-original="#b0bec5" class=""></path></g></svg>