<svg xmlns="http://www.w3.org/2000/svg" version="1.1" xmlns:xlink="http://www.w3.org/1999/xlink" width="48" height="48" x="0" y="0" viewBox="0 0 512 512" style="enable-background:new 0 0 512 512" xml:space="preserve" class=""><g><path d="m345.741 98.783 49.719 49.719 85.232 85.232L502 212.425l-35.514-106.54-78.129-78.128-56.821 56.821z" style="fill-rule:evenodd;clip-rule:evenodd;" fill="#b5c1c9" data-original="#b6bccf" class="" opacity="1"></path><path d="M327.732 106.243h50.224v70.312h-50.224z" style="fill-rule:evenodd;clip-rule:evenodd;" transform="rotate(-45.001 352.843 141.404)" fill="#d3dbdf" data-original="#e8eaf0" class="" opacity="1"></path><path d="m359.946 184.015-49.718-49.718-14.205-14.206-108.458 108.457 14.206 14.206 49.718 49.718 14.205 14.206 37.431-37.431 56.821-56.821 14.206-14.205z" style="fill-rule:evenodd;clip-rule:evenodd;" fill="#ff7745" data-original="#ff5d7d" class="" opacity="1"></path><path d="m359.946 212.426-56.821 56.821 106.54 35.513 21.308-21.308z" style="fill-rule:evenodd;clip-rule:evenodd;" fill="#b5c1c9" data-original="#b6bccf" class="" opacity="1"></path><path d="m251.489 292.472-49.718-49.718-31.962 31.962-31.962 31.961-31.961 31.962-31.962 31.962-31.962 31.962L10 434.525l49.718 49.718z" style="fill-rule:evenodd;clip-rule:evenodd;" fill="#d3dbdf" data-original="#e8eaf0" class="" opacity="1"></path><path d="m342.991 101.533-30.763 30.764M199.271 245.254 10 434.525l49.718 49.719 189.271-189.271m112.958-112.958 30.763-30.764M331.536 84.578l149.156 149.156L502 212.425l-35.514-106.539-78.129-78.129zM273.611 142.503l22.412-22.412 78.129 78.13-108.458 108.457-78.129-78.13 22.406-22.406M361.322 213.801l69.651 69.652-21.308 21.308-105.152-35.052M41.962 402.563l14.205 14.205M73.924 370.601l14.205 14.205M105.886 338.639l14.205 14.206M137.847 306.677l14.206 14.206M169.809 274.716l14.205 14.205" style="fill-rule:evenodd;clip-rule:evenodd;stroke-width:20.0001;stroke-linecap:round;stroke-linejoin:round;stroke-miterlimit:22.9256;" fill-rule="evenodd" clip-rule="evenodd" fill="none" stroke="#223339" stroke-width="20.0001" stroke-linecap="round" stroke-linejoin="round" stroke-miterlimit="22.9256" data-original="#000000" class="" opacity="1"></path><path d="m241.794 174.32-.005.005" style="fill-rule:evenodd;clip-rule:evenodd;stroke-width:19.9998;stroke-linecap:round;stroke-linejoin:round;stroke-miterlimit:2.6131;" fill-rule="evenodd" clip-rule="evenodd" fill="none" stroke="#223339" stroke-width="19.9998" stroke-linecap="round" stroke-linejoin="round" stroke-miterlimit="2.6131" data-original="#000000" class="" opacity="1"></path></g></svg>