<svg xmlns="http://www.w3.org/2000/svg" version="1.1" xmlns:xlink="http://www.w3.org/1999/xlink" width="48" height="48" x="0" y="0" viewBox="0 0 32 32" style="enable-background:new 0 0 512 512" xml:space="preserve" class=""><g><path fill="#d3dbdf" d="m15.41 19.3-4.53 4.53.8 2.97-3.74 3.74-5.12-1.36-1.36-5.12 3.74-3.74 2.97.8 5.74-5.74c1.003 1.089 1.022 2.602 1.5 3.92zM30.54 7.94l-3.73 3.73-2.98-.79-4.04 4.04c-1.313-.478-2.843-.497-3.92-1.5l5.25-5.25-.79-2.98 3.73-3.73 3.29.89-2.4 2.39.49 1.82 1.81.48 2.4-2.41z" opacity="1" data-original="#a4afc1" class=""></path><path fill="#b5c1c9" d="m6.078 23.612-1.331 1.331.487 1.818 1.819.488 1.331-1.331-.487-1.819z" opacity="1" data-original="#e8e6eb" class=""></path><path fill="#ff7745" d="M30 29.51a3.514 3.514 0 0 1-4.92.06l-8.47-8.47c-1.87-1.64-1.24-4.54-3.11-6.18l-1.98-1.98 1.9-1.91 1.98 1.98c1.64 1.86 4.55 1.24 6.19 3.11l8.24 8.24a3.551 3.551 0 0 1 .17 5.15z" opacity="1" data-original="#ffd149" class=""></path><path fill="#fec459" d="m17.905 18.948 1.585-1.585 6.101 6.101-1.585 1.586zM12.354 9.088 9.572 11.87c-.942.941.564 2.45 1.506 1.506l2.782-2.782c.942-.941-.564-2.45-1.506-1.506z" opacity="1" data-original="#f95e66" class=""></path><path fill="#d3dbdf" d="m5.766 2.493.585 1.724 5.439 5.44-1.649 1.649-5.439-5.439-1.725-.585-1.034-2.729 1.094-1.094z" opacity="1" data-original="#a4afc1" class=""></path><path fill="#fec459" d="M30 29.51a3.533 3.533 0 0 1-5.15-.17l4.98-4.98a3.551 3.551 0 0 1 .17 5.15z" opacity="1" data-original="#f95e66" class=""></path><path d="M7.94 31.04a.495.495 0 0 1-.128-.017l-5.12-1.36a.5.5 0 0 1-.355-.354l-1.36-5.12a.5.5 0 0 1 .13-.482l3.74-3.74a.502.502 0 0 1 .483-.13l2.69.725 5.537-5.536a.507.507 0 0 1 .721.015c1.093 1.183 1.116 2.705 1.602 4.088a.498.498 0 0 1-.116.524l-4.327 4.326.725 2.69a.498.498 0 0 1-.129.484l-3.739 3.74a.499.499 0 0 1-.354.147zm-4.71-2.269 4.56 1.212 3.332-3.332-.725-2.691a.498.498 0 0 1 .13-.483l4.31-4.311a13.266 13.266 0 0 0-.977-3.03l-5.337 5.338a.5.5 0 0 1-.483.129l-2.69-.725-3.332 3.332zM19.79 15.42c-.778-.265-5.17-1.005-4.274-2.354l5.047-5.046-.716-2.702a.5.5 0 0 1 .13-.482l3.729-3.73a.499.499 0 0 1 .484-.128l3.29.89a.503.503 0 0 1 .222.836L25.51 4.89l.339 1.26 1.252.333 2.196-2.206a.503.503 0 0 1 .837.223l.89 3.31a.5.5 0 0 1-.13.483l-3.73 3.73a.5.5 0 0 1-.481.13l-2.702-.716-3.836 3.836a.5.5 0 0 1-.354.147zm-3.164-2.048a13.289 13.289 0 0 0 3.03.975l3.82-3.82a.503.503 0 0 1 .482-.13l2.701.716 3.323-3.322-.59-2.194-1.787 1.796a.504.504 0 0 1-.483.13l-1.81-.48a.499.499 0 0 1-.354-.353l-.49-1.82a.499.499 0 0 1 .13-.484l1.786-1.78-2.176-.588-3.321 3.322.717 2.702a.5.5 0 0 1-.13.481z" fill="#223339" opacity="1" data-original="#000000" class=""></path><path d="M7.053 27.749a.495.495 0 0 1-.13-.018l-1.819-.487a.503.503 0 0 1-.353-.353l-.487-1.819a.502.502 0 0 1 .13-.483l1.33-1.33a.494.494 0 0 1 .484-.13l1.818.487a.503.503 0 0 1 .354.354l.487 1.818a.502.502 0 0 1-.13.483c-.463.404-1.39 1.563-1.684 1.478zm-1.41-1.396 1.26.338.923-.923-.338-1.26-1.26-.339-.923.923zM27.503 31.038a3.977 3.977 0 0 1-2.77-1.108l-8.476-8.476c-1.925-1.614-1.334-4.54-3.087-6.158l-2.004-2.003a.5.5 0 0 1-.001-.706l1.9-1.91a.5.5 0 0 1 .708 0l1.98 1.98c1.663 1.79 4.556 1.161 6.213 3.134l8.455 8.464a4.038 4.038 0 0 1-2.918 6.783zM12.226 12.94l1.628 1.627c1.925 1.614 1.333 4.54 3.086 6.158l8.494 8.492a3.025 3.025 0 0 0 4.212-.06 3.064 3.064 0 0 0-.177-4.45l-8.233-8.232c-1.657-1.8-4.55-1.17-6.21-3.134l-1.605-1.602z" fill="#223339" opacity="1" data-original="#000000" class=""></path><path d="M24.01 25.55a.498.498 0 0 1-.353-.146L17.555 19.3a.503.503 0 0 1 0-.707l1.586-1.585a.5.5 0 0 1 .707 0l6.102 6.102a.503.503 0 0 1 0 .707l-1.586 1.586a.498.498 0 0 1-.353.146zm-5.395-6.602 5.396 5.395.879-.878-5.396-5.396zM10.396 14.175a1.594 1.594 0 0 1-1.177-2.659L12 8.734c1.38-1.415 3.629.835 2.214 2.214l-2.782 2.781a1.454 1.454 0 0 1-1.036.446zm2.311-4.734-2.781 2.782c-.493.45.348 1.294.799.8l2.782-2.782c.493-.45-.348-1.293-.8-.8z" fill="#223339" opacity="1" data-original="#000000" class=""></path><path d="M10.14 11.806a.498.498 0 0 1-.353-.147L4.43 6.303l-1.613-.547a.502.502 0 0 1-.307-.297L1.475 2.73a.5.5 0 0 1 .114-.53l1.095-1.095a.499.499 0 0 1 .53-.114l2.73 1.034a.5.5 0 0 1 .296.308l.547 1.613 5.357 5.357a.503.503 0 0 1 0 .707l-1.65 1.65a.498.498 0 0 1-.353.146zM3.362 4.884a12.78 12.78 0 0 1 1.694.63l5.086 5.085.942-.942L5.997 4.57a12.784 12.784 0 0 1-.628-1.694l-2.207-.836-.638.637zM27.503 31.038a3.977 3.977 0 0 1-2.77-1.108c-.29-.243-.565-.6-.237-.944l4.98-4.98c.336-.337.711-.048.945.249a4.038 4.038 0 0 1-2.918 6.783zm-1.94-1.704a3.028 3.028 0 0 0 4.084-.178 3.03 3.03 0 0 0 .171-4.077z" fill="#223339" opacity="1" data-original="#000000" class=""></path></g></svg>