<?xml version="1.0" encoding="UTF-8"?>
<svg xmlns="http://www.w3.org/2000/svg" xmlns:xlink="http://www.w3.org/1999/xlink" xmlns:svgjs="http://svgjs.com/svgjs" version="1.1" width="16" height="16" x="0" y="0" viewBox="0 0 136 136.219" xml:space="preserve">
  <g>
    <path d="M93.148 80.832c16.352-23.09 10.883-55.062-12.207-71.41S25.88-1.461 9.531 21.632C-6.816 44.723-1.352 76.693 21.742 93.04a51.226 51.226 0 0 0 55.653 2.3l37.77 37.544c4.077 4.293 10.862 4.465 15.155.387 4.293-4.075 4.465-10.86.39-15.153a9.21 9.21 0 0 0-.39-.39Zm-41.84 3.5c-18.245.004-33.038-14.777-33.05-33.023-.004-18.246 14.777-33.04 33.027-33.047 18.223-.008 33.008 14.75 33.043 32.972.031 18.25-14.742 33.067-32.996 33.098h-.023Zm0 0" style="stroke:none;fill-rule:nonzero;fill-opacity:1;" fill="#000000" data-original="#000000"></path>
  </g>
</svg>
