<svg xmlns="http://www.w3.org/2000/svg" version="1.1" xmlns:xlink="http://www.w3.org/1999/xlink" width="48" height="48" x="0" y="0" viewBox="0 0 682.667 682.667" style="enable-background:new 0 0 512 512" xml:space="preserve" class=""><g><defs><clipPath id="a" clipPathUnits="userSpaceOnUse"><path d="M0 512h512V0H0Z" fill="#223339" opacity="1" data-original="#000000" class=""></path></clipPath></defs><g clip-path="url(#a)" transform="matrix(1.33333 0 0 -1.33333 0 682.667)"><path d="M0 0v-180.361a5 5 0 0 1 2.5-4.33l156.197-90.181a5 5 0 0 1 5 0l156.197 90.181a5 5 0 0 1 2.5 4.33V0a5 5 0 0 1-2.5 4.33L163.697 94.51a4.996 4.996 0 0 1-5 0L2.5 4.33A5 5 0 0 1 0 0" style="fill-opacity:1;fill-rule:nonzero;stroke:none" transform="translate(146.68 346.774)" fill="#fcca86" data-original="#fed2a4" class="" opacity="1"></path><path d="M0 0a5.92 5.92 0 0 1 2.962.794l126.112 72.81v25.893c0 .893-.238 1.752-.67 2.5L-29.16 11.026a5.935 5.935 0 0 0-2.963-.793v-186.278c.863 0 1.727.224 2.5.67L0-158.272Z" style="fill-opacity:1;fill-rule:nonzero;stroke:none" transform="translate(340 247.277)" fill="#eeb462" data-original="#ffbd86" class="" opacity="1"></path><path d="M0 0v49.774a5 5 0 0 1-2.5 4.33l-156.197 90.18a4.996 4.996 0 0 1-5 0l-156.197-90.18a5 5 0 0 1-2.5-4.33v-180.361a5 5 0 0 1 2.5-4.33l156.197-90.181a5 5 0 0 1 5 0L-2.5-134.917a5 5 0 0 1 2.5 4.33V-35" style="stroke-width:15;stroke-linecap:round;stroke-linejoin:round;stroke-miterlimit:10;stroke-dasharray:none;stroke-opacity:1" transform="translate(469.074 297)" fill="none" stroke="#223339" stroke-width="15" stroke-linecap="round" stroke-linejoin="round" stroke-miterlimit="10" stroke-dasharray="none" stroke-opacity="" data-original="#000000" class="" opacity="1"></path><path d="m0 0-149.347 86.226c-3.949 2.28-3.95 7.981-.001 10.261l-6.386-3.687a5 5 0 0 1-2.5-4.33V-91.356a5.926 5.926 0 0 1 2.962-5.132L.462-186.401a4.995 4.995 0 0 1 2.5-.67V-.793A5.922 5.922 0 0 0 0 0" style="fill-opacity:1;fill-rule:nonzero;stroke:none" transform="translate(304.915 258.304)" fill="#d49a47" data-original="#d88a55" class="" opacity="1"></path><path d="M0 0a5.925 5.925 0 0 0-2.963 5.131v143.977l-22.235 12.838c-3.949 2.28-3.95 7.981-.001 10.262l-6.386-3.687a5.002 5.002 0 0 1-2.5-4.331V-15.636a5.927 5.927 0 0 1 2.962-5.132l155.734-89.913a5.005 5.005 0 0 1 2.5-.67v37.963z" style="fill-opacity:1;fill-rule:nonzero;stroke:none" transform="translate(180.766 182.583)" fill="#c98e3d" data-original="#c57a44" class="" opacity="1"></path><path d="m0 0-149.347 86.226c-3.949 2.28-3.95 7.981-.001 10.261l-6.386-3.687a5 5 0 0 1-2.5-4.33V-91.356a5.926 5.926 0 0 1 2.962-5.132L.462-186.401a4.995 4.995 0 0 1 2.5-.67V-.793A5.922 5.922 0 0 0 0 0Z" style="stroke-width:15;stroke-linecap:round;stroke-linejoin:round;stroke-miterlimit:10;stroke-dasharray:none;stroke-opacity:1" transform="translate(304.915 258.304)" fill="none" stroke="#223339" stroke-width="15" stroke-linecap="round" stroke-linejoin="round" stroke-miterlimit="10" stroke-dasharray="none" stroke-opacity="" data-original="#000000" class="" opacity="1"></path><path d="m0 0 157.564 90.97a4.98 4.98 0 0 1-1.83 1.83L-.463 182.981a5 5 0 0 1-5 0l-149.81-86.494c-3.949-2.28-3.949-7.981.001-10.261L-5.925 0A5.927 5.927 0 0 1 0 0" style="fill-opacity:1;fill-rule:nonzero;stroke:none" transform="translate(310.84 258.304)" fill="#f6bf73" data-original="#f6a96c" class="" opacity="1"></path><path d="m0 0 157.564 90.97a4.98 4.98 0 0 1-1.83 1.83L-.463 182.981a5 5 0 0 1-5 0l-149.81-86.494c-3.949-2.28-3.949-7.981.001-10.261L-5.925 0A5.927 5.927 0 0 1 0 0Z" style="stroke-width:15;stroke-linecap:round;stroke-linejoin:round;stroke-miterlimit:10;stroke-dasharray:none;stroke-opacity:1" transform="translate(310.84 258.304)" fill="none" stroke="#223339" stroke-width="15" stroke-linecap="round" stroke-linejoin="round" stroke-miterlimit="10" stroke-dasharray="none" stroke-opacity="" data-original="#000000" class="" opacity="1"></path><path d="m0 0 70.858 84.782L90.32 68.516 19.462-16.266Z" style="fill-opacity:1;fill-rule:nonzero;stroke:none" transform="translate(68.391 235.527)" fill="#b6c4cf" data-original="#b6c4cf" class=""></path><path d="m0 0 70.858 84.782L90.32 68.516 19.462-16.266Z" style="stroke-width:15;stroke-linecap:round;stroke-linejoin:round;stroke-miterlimit:10;stroke-dasharray:none;stroke-opacity:1" transform="translate(68.391 235.527)" fill="none" stroke="#223339" stroke-width="15" stroke-linecap="round" stroke-linejoin="round" stroke-miterlimit="10" stroke-dasharray="none" stroke-opacity="" data-original="#000000" class="" opacity="1"></path><path d="m0 0 20.08-16.782a6.039 6.039 0 0 1 8.507.761l61.886 74.047a6.038 6.038 0 0 1-.761 8.506l-20.08 16.783a6.04 6.04 0 0 1-8.507-.761L-.761 8.507A6.04 6.04 0 0 1 0 0" style="fill-opacity:1;fill-rule:nonzero;stroke:none" transform="translate(9.666 165.89)" fill="#7a8d98" data-original="#7a8d98" class=""></path><path d="M0 0a6.039 6.039 0 0 0 8.507.761l11.482-9.596 5.859 7.01a6.038 6.038 0 0 1-.761 8.506L5.007 23.464a6.04 6.04 0 0 1-8.507-.761l-61.886-74.047a6.04 6.04 0 0 1 .761-8.507l8.598-7.186z" style="fill-opacity:1;fill-rule:nonzero;stroke:none" transform="translate(74.291 225.741)" fill="#596c76" data-original="#596c76" class=""></path><path d="m0 0 20.08-16.782a6.039 6.039 0 0 1 8.507.761l61.886 74.047a6.038 6.038 0 0 1-.761 8.506l-20.08 16.783a6.04 6.04 0 0 1-8.507-.761L-.761 8.507A6.04 6.04 0 0 1 0 0Z" style="stroke-width:15;stroke-linecap:round;stroke-linejoin:round;stroke-miterlimit:10;stroke-dasharray:none;stroke-opacity:1" transform="translate(9.666 165.89)" fill="none" stroke="#223339" stroke-width="15" stroke-linecap="round" stroke-linejoin="round" stroke-miterlimit="10" stroke-dasharray="none" stroke-opacity="" data-original="#000000" class="" opacity="1"></path><path d="M0 0c-28.875-34.55-24.275-85.966 10.274-114.841 34.55-28.875 85.966-24.276 114.841 10.274 28.875 34.549 24.276 85.965-10.274 114.841C80.292 39.149 28.875 34.549 0 0" style="fill-opacity:1;fill-rule:nonzero;stroke:none" transform="translate(107.723 389.945)" fill="#ff7745" data-original="#0593fc" class="" opacity="1"></path><path d="M0 0c-28.875-34.55-24.275-85.966 10.274-114.841 34.55-28.875 85.966-24.276 114.841 10.274 28.875 34.549 24.276 85.965-10.274 114.841C80.292 39.149 28.875 34.549 0 0Z" style="stroke-width:15;stroke-linecap:round;stroke-linejoin:round;stroke-miterlimit:10;stroke-dasharray:none;stroke-opacity:1" transform="translate(107.723 389.945)" fill="none" stroke="#223339" stroke-width="15" stroke-linecap="round" stroke-linejoin="round" stroke-miterlimit="10" stroke-dasharray="none" stroke-opacity="" data-original="#000000" class="" opacity="1"></path><path d="M0 0c-19.38-23.189-16.293-57.698 6.896-77.079 23.188-19.38 57.698-16.293 77.079 6.896 19.38 23.189 16.293 57.698-6.896 77.079C53.89 26.276 19.38 23.188 0 0" style="fill-opacity:1;fill-rule:nonzero;stroke:none" transform="translate(128.293 372.753)" fill="#ffffff" data-original="#eaf6ff" class="" opacity="1"></path><path d="M0 0c-23.189 19.38-26.276 53.89-6.896 77.079a54.459 54.459 0 0 0 26.289 17.324C-.943 100.5-23.86 94.4-38.337 77.079-57.717 53.89-54.63 19.38-31.441 0c14.638-12.234 33.783-15.505 50.79-10.429A54.527 54.527 0 0 0 0 0" style="fill-opacity:1;fill-rule:nonzero;stroke:none" transform="translate(166.63 295.675)" fill="#eaeaea" data-original="#d8ecfe" class="" opacity="1"></path><path d="M0 0a54.454 54.454 0 0 1-16.809 24.649c-23.189 19.38-57.698 16.293-77.079-6.896-19.38-23.189-16.293-57.698 6.896-77.078 23.189-19.381 57.698-16.294 77.078 6.895A54.54 54.54 0 0 1-.109-35" style="stroke-width:15;stroke-linecap:round;stroke-linejoin:round;stroke-miterlimit:10;stroke-dasharray:none;stroke-opacity:1" transform="translate(222.181 355)" fill="none" stroke="#223339" stroke-width="15" stroke-linecap="round" stroke-linejoin="round" stroke-miterlimit="10" stroke-dasharray="none" stroke-opacity="" data-original="#000000" class="" opacity="1"></path><path d="M0 0h100.221a5.082 5.082 0 0 1 5.082 5.082v150.925a5.082 5.082 0 0 1-5.082 5.082H0a5.082 5.082 0 0 1-5.082-5.082V5.082A5.082 5.082 0 0 1 0 0" style="fill-opacity:1;fill-rule:nonzero;stroke:none" transform="translate(399.197 70.046)" fill="#ffeee4" data-original="#fed402" class="" opacity="1"></path><path d="M0 0v150.926a5.082 5.082 0 0 0 5.082 5.082h-31.5a5.082 5.082 0 0 1-5.082-5.082V0a5.082 5.082 0 0 1 5.082-5.082h31.5A5.082 5.082 0 0 0 0 0" style="fill-opacity:1;fill-rule:nonzero;stroke:none" transform="translate(425.615 75.127)" fill="#ffe0ce" data-original="#fac600" class="" opacity="1"></path><path d="M0 0h16.418A5.082 5.082 0 0 1 21.5 5.082v150.925a5.082 5.082 0 0 1-5.082 5.082H-83.803a5.082 5.082 0 0 1-5.082-5.082V5.082A5.082 5.082 0 0 1-83.803 0H-35" style="stroke-width:15;stroke-linecap:round;stroke-linejoin:round;stroke-miterlimit:10;stroke-dasharray:none;stroke-opacity:1" transform="translate(483 70.046)" fill="none" stroke="#223339" stroke-width="15" stroke-linecap="round" stroke-linejoin="round" stroke-miterlimit="10" stroke-dasharray="none" stroke-opacity="" data-original="#000000" class="" opacity="1"></path><path d="M0 0h47.322" style="fill-opacity:1;fill-rule:nonzero;stroke:#000000;stroke-width:15;stroke-linecap:round;stroke-linejoin:round;stroke-miterlimit:10;stroke-dasharray:none;stroke-opacity:1" transform="translate(425.647 194.818)" data-original="#000000"></path><path d="M0 0h47.322" style="fill-opacity:1;fill-rule:nonzero;stroke:#000000;stroke-width:15;stroke-linecap:round;stroke-linejoin:round;stroke-miterlimit:10;stroke-dasharray:none;stroke-opacity:1" transform="translate(425.647 166.572)" data-original="#000000"></path><path d="M0 0h47.322" style="fill-opacity:1;fill-rule:nonzero;stroke:#000000;stroke-width:15;stroke-linecap:round;stroke-linejoin:round;stroke-miterlimit:10;stroke-dasharray:none;stroke-opacity:1" transform="translate(425.647 138.326)" data-original="#000000"></path><path d="M0 0h28.613" style="fill-opacity:1;fill-rule:nonzero;stroke:#000000;stroke-width:15;stroke-linecap:round;stroke-linejoin:round;stroke-miterlimit:10;stroke-dasharray:none;stroke-opacity:1" transform="translate(425.647 110.08)" data-original="#000000"></path></g></g></svg>