<svg xmlns="http://www.w3.org/2000/svg" version="1.1" xmlns:xlink="http://www.w3.org/1999/xlink" width="48" height="48" x="0" y="0" viewBox="0 0 48 48" style="enable-background:new 0 0 512 512" xml:space="preserve" fill-rule="evenodd" class=""><g><path fill="#f2f2f2" d="M11.186 38.771V4.754c0-.828.672-1.5 1.5-1.5h31.016c.622 0 1.156.379 1.383.918-.07-.133-14.89 36.1-14.89 36.1H12.686c-.828 0-1.5-.672-1.5-1.5z" opacity="1" data-original="#e0e0e0" class=""></path><path fill="#ff7745" d="m19.201 22.152-4.366-4.366h5.66l6.367 6.367-6.367 6.367h-5.66l4.366-4.366H3.83a1 1 0 0 1-1-1v-2.001a1 1 0 0 1 1-1.001h15.372z" opacity="1" data-original="#8bc349" class=""></path><path fill="#f6bf73" d="M45.2 4.641a1.003 1.003 0 0 0-1.317-.948l-12.664 4.22a1.5 1.5 0 0 0-1.027 1.425v33.854a1.502 1.502 0 0 0 1.975 1.424l11.664-3.888A2.001 2.001 0 0 0 45.2 38.83V4.641z" opacity="1" data-original="#f9a824" class=""></path><path d="M39.037 4.29 30.904 7a2.503 2.503 0 0 0-1.71 2.374v7.923a1 1 0 0 0 2.002 0V9.374a.5.5 0 0 1 .342-.475l12.664-4.222V38.865a1 1 0 0 1-.684.95l-11.664 3.888a.499.499 0 0 1-.658-.475v-22.93a1 1 0 0 0-2.001 0v19.01H20.19a1 1 0 0 0 0 2h9.005v1.92a2.502 2.502 0 0 0 3.292 2.374l11.664-3.888a3.002 3.002 0 0 0 2.052-2.849V4.677c0-.316-.075-.623-.213-.897a2.5 2.5 0 0 0-2.288-1.491h-6.503a1 1 0 0 0 0 2.001zM10.185 21.299H4.182a2 2 0 0 0-2.001 2v2.002a2 2 0 0 0 2.001 2h6.003v11.506a2.5 2.5 0 0 0 2.501 2.502h1.501a1 1 0 0 0 0-2.001h-1.5a.5.5 0 0 1-.501-.5V27.301h4.952L14.48 29.96a1 1 0 0 0 .708 1.708h5.66a1 1 0 0 0 .707-.293l6.367-6.368c.39-.39.39-1.024 0-1.414l-6.367-6.368a1 1 0 0 0-.708-.293h-5.66a1.002 1.002 0 0 0-.707 1.708l2.658 2.659h-4.952V4.79a.5.5 0 0 1 .5-.5h21.511a1 1 0 0 0 0-2.001h-21.51a2.5 2.5 0 0 0-2.502 2.501zm-6.003 2h15.372a1.002 1.002 0 0 0 .707-1.707l-2.658-2.659h2.83L25.8 24.3l-5.367 5.367h-2.83l2.658-2.659a1 1 0 0 0-.707-1.707H4.182z" fill="#223339" opacity="1" data-original="#000000" class=""></path><circle cx="14" cy="30" r="1" transform="matrix(1 0 0 1 3 10)" fill="#223339" opacity="1" data-original="#000000" class=""></circle></g></svg>