<svg xmlns="http://www.w3.org/2000/svg" version="1.1" xmlns:xlink="http://www.w3.org/1999/xlink" width="32" height="32" x="0" y="0" viewBox="0 0 32 32" style="enable-background:new 0 0 512 512" xml:space="preserve" class=""><g><g data-name="11-Avatar"><path d="M16 16a7 7 0 1 0-7-7 7 7 0 0 0 7 7zm0-12a5 5 0 1 1-5 5 5 5 0 0 1 5-5zM20 18h-8a9 9 0 0 0-9 9 3 3 0 0 0 3 3h20a3 3 0 0 0 3-3 9 9 0 0 0-9-9zm6 10H6a1 1 0 0 1-1-1 7 7 0 0 1 7-7h8a7 7 0 0 1 7 7 1 1 0 0 1-1 1z" fill="#0f2027" opacity="1" data-original="#000000" class=""></path></g></g></svg>