<svg xmlns="http://www.w3.org/2000/svg" version="1.1" xmlns:xlink="http://www.w3.org/1999/xlink" width="24" height="24" x="0" y="0" viewBox="0 0 512 512" style="enable-background:new 0 0 512 512" xml:space="preserve" class=""><g><path d="M440.164 71.836C393.84 25.511 332.249 0 266.737 0S139.633 25.511 93.308 71.836 21.473 179.751 21.473 245.263c0 41.499 10.505 82.279 30.445 118.402L0 512l148.333-51.917c36.124 19.938 76.904 30.444 118.403 30.444 65.512 0 127.104-25.512 173.427-71.836C486.488 372.367 512 310.776 512 245.263S486.488 118.16 440.164 71.836zm-52.179 264.539L359.67 364.69c-23.456 23.456-90.011-5.066-148.652-63.708-58.642-58.642-87.165-125.195-63.708-148.652l28.314-28.314c5.864-5.864 15.372-5.864 21.236 0l35.393 35.393c5.864 5.864 5.864 15.372 0 21.236l-21.236 21.236a208.346 208.346 0 0 0 99.102 99.101l21.236-21.236c5.864-5.864 15.372-5.864 21.236 0l35.393 35.393c5.865 5.865 5.865 15.372.001 21.236z" fill="#000000" opacity="1" data-original="#000000" class=""></path></g></svg>